<svg width="334" height="200" viewBox="0 0 334 200" fill="none" xmlns="http://www.w3.org/2000/svg">
<path d="M19.568 32V10.56L20.592 11.648H14.288V9.6H21.872V32H19.568Z" fill="url(#paint0_linear_504_2)"/>
<rect x="1" y="1" width="38" height="38" rx="9" stroke="url(#paint1_linear_504_2)" stroke-width="2"/>
<path d="M19.352 192.192C17.7307 192.192 16.1947 191.936 14.744 191.424C13.3147 190.891 12.1627 190.187 11.288 189.312L12.408 187.488C13.1333 188.235 14.104 188.853 15.32 189.344C16.5573 189.835 17.9013 190.08 19.352 190.08C21.208 190.08 22.6267 189.675 23.608 188.864C24.6107 188.053 25.112 186.965 25.112 185.6C25.112 184.235 24.6213 183.147 23.64 182.336C22.68 181.525 21.1547 181.12 19.064 181.12H17.464V179.424L24.376 170.752L24.696 171.648H12.216V169.6H26.616V171.232L19.704 179.904L18.584 179.168H19.448C22.136 179.168 24.1413 179.765 25.464 180.96C26.808 182.155 27.48 183.691 27.48 185.568C27.48 186.827 27.1813 187.957 26.584 188.96C25.9867 189.963 25.08 190.752 23.864 191.328C22.6693 191.904 21.1653 192.192 19.352 192.192Z" fill="url(#paint2_linear_504_2)"/>
<rect x="1" y="161" width="38" height="38" rx="9" stroke="url(#paint3_linear_504_2)" stroke-width="2"/>
<path d="M12.248 112V110.368L21.56 101.248C22.4133 100.416 23.0533 99.6907 23.48 99.072C23.9067 98.432 24.1947 97.8347 24.344 97.28C24.4933 96.7253 24.568 96.2027 24.568 95.712C24.568 94.4107 24.12 93.3867 23.224 92.64C22.3493 91.8933 21.048 91.52 19.32 91.52C17.9973 91.52 16.824 91.7227 15.8 92.128C14.7973 92.5333 13.9333 93.1627 13.208 94.016L11.576 92.608C12.4507 91.584 13.5707 90.7947 14.936 90.24C16.3013 89.6853 17.8267 89.408 19.512 89.408C21.0267 89.408 22.3387 89.6533 23.448 90.144C24.5573 90.6133 25.4107 91.3067 26.008 92.224C26.6267 93.1413 26.936 94.2187 26.936 95.456C26.936 96.1813 26.8293 96.896 26.616 97.6C26.424 98.304 26.0613 99.0507 25.528 99.84C25.016 100.608 24.2587 101.483 23.256 102.464L14.712 110.848L14.072 109.952H27.96V112H12.248Z" fill="url(#paint4_linear_504_2)"/>
<rect x="1" y="81" width="38" height="38" rx="9" stroke="url(#paint5_linear_504_2)" stroke-width="2"/>
<path d="M50.455 16.908L50.806 16.219C51.2047 16.5657 51.651 16.8257 52.145 16.999C52.6477 17.1637 53.1503 17.2503 53.653 17.259C54.1557 17.259 54.615 17.1853 55.031 17.038C55.4557 16.8907 55.798 16.674 56.058 16.388C56.318 16.0933 56.448 15.738 56.448 15.322C56.448 14.7933 56.2357 14.386 55.811 14.1C55.395 13.814 54.8143 13.671 54.069 13.671H52.119V12.891H54.017C54.6583 12.891 55.1567 12.7567 55.512 12.488C55.876 12.2107 56.058 11.8293 56.058 11.344C56.058 10.9973 55.954 10.7027 55.746 10.46C55.5467 10.2087 55.2693 10.018 54.914 9.888C54.5673 9.74933 54.1773 9.67567 53.744 9.667C53.3107 9.64967 52.86 9.706 52.392 9.836C51.9327 9.95733 51.4863 10.1523 51.053 10.421L50.741 9.628C51.2783 9.30733 51.8373 9.08633 52.418 8.965C52.9987 8.835 53.562 8.79167 54.108 8.835C54.654 8.87833 55.1437 9.004 55.577 9.212C56.019 9.42 56.37 9.693 56.63 10.031C56.89 10.369 57.02 10.772 57.02 11.24C57.02 11.6733 56.9073 12.0547 56.682 12.384C56.4653 12.7133 56.1577 12.969 55.759 13.151C55.369 13.3243 54.9053 13.411 54.368 13.411L54.42 13.125C55.0267 13.125 55.551 13.2203 55.993 13.411C56.4437 13.6017 56.7903 13.8747 57.033 14.23C57.2843 14.5767 57.41 14.984 57.41 15.452C57.41 15.894 57.2973 16.2883 57.072 16.635C56.8553 16.973 56.552 17.259 56.162 17.493C55.7807 17.7183 55.3517 17.883 54.875 17.987C54.3983 18.0823 53.9 18.1083 53.38 18.065C52.86 18.0217 52.3487 17.909 51.846 17.727C51.3433 17.5363 50.8797 17.2633 50.455 16.908ZM58.4596 18L62.6196 8.9H63.5686L67.7286 18H66.7146L62.8926 9.459H63.2826L59.4606 18H58.4596ZM60.0976 15.569L60.3836 14.789H65.6746L65.9606 15.569H60.0976ZM69.4725 18V8.9H72.8785C73.6498 8.9 74.3128 9.02567 74.8675 9.277C75.4221 9.51967 75.8468 9.875 76.1415 10.343C76.4448 10.8023 76.5965 11.3613 76.5965 12.02C76.5965 12.6613 76.4448 13.216 76.1415 13.684C75.8468 14.1433 75.4221 14.4987 74.8675 14.75C74.3128 15.0013 73.6498 15.127 72.8785 15.127H70.0055L70.4345 14.672V18H69.4725ZM70.4345 14.75L70.0055 14.282H72.8525C73.7625 14.282 74.4515 14.087 74.9195 13.697C75.3961 13.2983 75.6345 12.7393 75.6345 12.02C75.6345 11.292 75.3961 10.7287 74.9195 10.33C74.4515 9.93133 73.7625 9.732 72.8525 9.732H70.0055L70.4345 9.277V14.75ZM79.4203 12.969H84.2303V13.788H79.4203V12.969ZM79.5243 17.168H84.9973V18H78.5623V8.9H84.8023V9.732H79.5243V17.168ZM87.1317 18V8.9H92.9167V9.732H87.8207L88.0677 9.485L88.0807 18H87.1317ZM94.5711 18V8.9H95.5201V16.44L101.344 8.9H102.215V18H101.266V10.473L95.4421 18H94.5711ZM109.264 18.078C108.579 18.078 107.947 17.9653 107.366 17.74C106.785 17.506 106.283 17.181 105.858 16.765C105.433 16.349 105.1 15.8593 104.857 15.296C104.623 14.7327 104.506 14.1173 104.506 13.45C104.506 12.7827 104.623 12.1673 104.857 11.604C105.1 11.0407 105.433 10.551 105.858 10.135C106.291 9.719 106.798 9.39833 107.379 9.173C107.96 8.939 108.592 8.822 109.277 8.822C109.936 8.822 110.555 8.93467 111.136 9.16C111.717 9.37667 112.206 9.706 112.605 10.148L111.994 10.759C111.621 10.3777 111.21 10.1047 110.759 9.94C110.308 9.76667 109.823 9.68 109.303 9.68C108.757 9.68 108.25 9.77533 107.782 9.966C107.314 10.148 106.907 10.4123 106.56 10.759C106.213 11.097 105.94 11.4957 105.741 11.955C105.55 12.4057 105.455 12.904 105.455 13.45C105.455 13.996 105.55 14.4987 105.741 14.958C105.94 15.4087 106.213 15.8073 106.56 16.154C106.907 16.492 107.314 16.7563 107.782 16.947C108.25 17.129 108.757 17.22 109.303 17.22C109.823 17.22 110.308 17.1333 110.759 16.96C111.21 16.7867 111.621 16.5093 111.994 16.128L112.605 16.739C112.206 17.181 111.717 17.5147 111.136 17.74C110.555 17.9653 109.931 18.078 109.264 18.078ZM116.284 18V9.472L116.544 9.732H113.086V8.9H120.431V9.732H116.986L117.233 9.472V18H116.284ZM122.12 18V8.9H125.526C126.297 8.9 126.96 9.02567 127.515 9.277C128.07 9.51967 128.494 9.875 128.789 10.343C129.092 10.8023 129.244 11.3613 129.244 12.02C129.244 12.6613 129.092 13.216 128.789 13.684C128.494 14.1433 128.07 14.4987 127.515 14.75C126.96 15.0013 126.297 15.127 125.526 15.127H122.653L123.082 14.672V18H122.12ZM123.082 14.75L122.653 14.282H125.5C126.41 14.282 127.099 14.087 127.567 13.697C128.044 13.2983 128.282 12.7393 128.282 12.02C128.282 11.292 128.044 10.7287 127.567 10.33C127.099 9.93133 126.41 9.732 125.5 9.732H122.653L123.082 9.277V14.75ZM131.21 18V8.9H132.159V16.44L137.983 8.9H138.854V18H137.905V10.473L132.081 18H131.21ZM141.925 18V8.9H145.331C146.102 8.9 146.765 9.02567 147.32 9.277C147.874 9.51967 148.299 9.875 148.594 10.343C148.897 10.8023 149.049 11.3613 149.049 12.02C149.049 12.6613 148.897 13.216 148.594 13.684C148.299 14.1433 147.874 14.4987 147.32 14.75C146.765 15.0013 146.102 15.127 145.331 15.127H142.458L142.887 14.672V18H141.925ZM142.887 14.75L142.458 14.282H145.305C146.215 14.282 146.904 14.087 147.372 13.697C147.848 13.2983 148.087 12.7393 148.087 12.02C148.087 11.292 147.848 10.7287 147.372 10.33C146.904 9.93133 146.215 9.732 145.305 9.732H142.458L142.887 9.277V14.75ZM150.655 17.103C151.097 17.2763 151.513 17.3197 151.903 17.233C152.293 17.1377 152.653 16.83 152.982 16.31L153.424 15.608L153.515 15.491L156.999 8.9H157.961L153.827 16.518C153.55 17.0467 153.221 17.441 152.839 17.701C152.467 17.961 152.068 18.0997 151.643 18.117C151.227 18.1343 150.807 18.0563 150.382 17.883L150.655 17.103ZM153.489 16.362L149.55 8.9H150.577L154.009 15.569L153.489 16.362ZM159.457 18V8.9H160.406V16.44L166.23 8.9H167.101V18H166.152V10.473L160.328 18H159.457ZM163.253 8.237C162.603 8.237 162.087 8.08967 161.706 7.795C161.333 7.50033 161.143 7.08867 161.134 6.56H161.849C161.858 6.90667 161.988 7.17967 162.239 7.379C162.499 7.57833 162.837 7.678 163.253 7.678C163.669 7.678 164.003 7.57833 164.254 7.379C164.514 7.17967 164.648 6.90667 164.657 6.56H165.372C165.363 7.08867 165.168 7.50033 164.787 7.795C164.406 8.08967 163.894 8.237 163.253 8.237ZM171.979 18V9.472L172.239 9.732H168.781V8.9H176.126V9.732H172.681L172.928 9.472V18H171.979ZM178.672 12.969H183.482V13.788H178.672V12.969ZM178.776 17.168H184.249V18H177.814V8.9H184.054V9.732H178.776V17.168ZM50.871 34.078C50.7497 34.078 50.6327 34.0693 50.52 34.052C50.4073 34.0433 50.2817 34.0217 50.143 33.987L50.221 33.129C50.3683 33.1637 50.5113 33.181 50.65 33.181C51.04 33.181 51.352 33.0293 51.586 32.726C51.8287 32.414 52.0107 31.9373 52.132 31.296C52.2533 30.646 52.3313 29.814 52.366 28.8L52.496 24.9H58.671V34H57.722V25.472L57.969 25.732H53.107L53.341 25.459L53.224 28.774C53.1893 29.684 53.1243 30.4727 53.029 31.14C52.9337 31.7987 52.795 32.349 52.613 32.791C52.431 33.2243 52.197 33.5493 51.911 33.766C51.625 33.974 51.2783 34.078 50.871 34.078ZM61.741 34V24.9H62.69V32.44L68.514 24.9H69.385V34H68.436V26.473L62.612 34H61.741ZM77.857 30.152C77.337 30.386 76.817 30.5637 76.297 30.685C75.7856 30.8063 75.2916 30.867 74.815 30.867C73.749 30.867 72.917 30.6113 72.319 30.1C71.7296 29.58 71.435 28.8477 71.435 27.903V24.9H72.384V27.799C72.384 28.501 72.605 29.047 73.047 29.437C73.4976 29.827 74.1173 30.022 74.906 30.022C75.374 30.022 75.8593 29.9613 76.362 29.84C76.8646 29.71 77.363 29.528 77.857 29.294V30.152ZM77.688 34V24.9H78.624V34H77.688ZM88.3668 24.9H89.3158V34H88.3668V24.9ZM82.6728 34H81.7108V24.9H82.6728V34ZM88.4578 29.801H82.5688V28.956H88.4578V29.801ZM96.1965 28.15C97.2712 28.15 98.0902 28.3927 98.6535 28.878C99.2255 29.3547 99.5115 30.0653 99.5115 31.01C99.5115 31.9893 99.2082 32.7347 98.6015 33.246C97.9948 33.7487 97.1282 34 96.0015 34H92.3875V24.9H93.3365V28.15H96.1965ZM95.9755 33.233C96.8162 33.233 97.4532 33.0467 97.8865 32.674C98.3285 32.3013 98.5495 31.7553 98.5495 31.036C98.5495 30.3167 98.3328 29.788 97.8995 29.45C97.4662 29.1033 96.8248 28.93 95.9755 28.93H93.3365V33.233H95.9755ZM101.085 34V24.9H102.034V34H101.085ZM105.096 34V24.9H106.045V32.44L111.869 24.9H112.74V34H111.791V26.473L105.967 34H105.096ZM108.892 24.237C108.242 24.237 107.726 24.0897 107.345 23.795C106.972 23.5003 106.781 23.0887 106.773 22.56H107.488C107.496 22.9067 107.626 23.1797 107.878 23.379C108.138 23.5783 108.476 23.678 108.892 23.678C109.308 23.678 109.641 23.5783 109.893 23.379C110.153 23.1797 110.287 22.9067 110.296 22.56H111.011C111.002 23.0887 110.807 23.5003 110.426 23.795C110.044 24.0897 109.533 24.237 108.892 24.237ZM125.44 34L121.943 29.463L122.723 28.995L126.545 34H125.44ZM119.213 34V24.9H120.149V34H119.213ZM119.863 29.827V28.982H122.71V29.827H119.863ZM122.801 29.554L121.917 29.398L125.31 24.9H126.35L122.801 29.554ZM126.583 34L130.743 24.9H131.692L135.852 34H134.838L131.016 25.459H131.406L127.584 34H126.583ZM128.221 31.569L128.507 30.789H133.798L134.084 31.569H128.221ZM137.596 34V24.9H144.252V25.719H138.545V28.696H141.522C142.596 28.696 143.411 28.917 143.966 29.359C144.529 29.7923 144.811 30.4337 144.811 31.283C144.811 32.1583 144.507 32.83 143.901 33.298C143.303 33.766 142.44 34 141.314 34H137.596ZM138.545 33.233H141.301C142.141 33.233 142.774 33.0727 143.199 32.752C143.632 32.4227 143.849 31.946 143.849 31.322C143.849 30.0827 142.999 29.463 141.301 29.463H138.545V33.233ZM147.028 34V24.9H147.977V32.44L153.801 24.9H154.672V34H153.723V26.473L147.899 34H147.028ZM164.399 24.9H165.348V34H164.399V24.9ZM158.705 34H157.743V24.9H158.705V34ZM164.49 29.801H158.601V28.956H164.49V29.801ZM169.278 28.969H174.088V29.788H169.278V28.969ZM169.382 33.168H174.855V34H168.42V24.9H174.66V25.732H169.382V33.168ZM178.796 34V25.472L179.056 25.732H175.598V24.9H182.943V25.732H179.498L179.745 25.472V34H178.796Z" fill="black"/>
<path d="M51.534 177V167.9H59.191V177H58.242V168.472L58.489 168.732H52.236L52.483 168.472V177H51.534ZM66.2525 177.078C65.5679 177.078 64.9309 176.965 64.3415 176.74C63.7609 176.506 63.2539 176.181 62.8205 175.765C62.3959 175.34 62.0622 174.851 61.8195 174.296C61.5855 173.733 61.4685 173.117 61.4685 172.45C61.4685 171.783 61.5855 171.172 61.8195 170.617C62.0622 170.054 62.3959 169.564 62.8205 169.148C63.2539 168.723 63.7609 168.398 64.3415 168.173C64.9222 167.939 65.5592 167.822 66.2525 167.822C66.9372 167.822 67.5699 167.939 68.1505 168.173C68.7312 168.398 69.2339 168.719 69.6585 169.135C70.0919 169.551 70.4255 170.041 70.6595 170.604C70.9022 171.167 71.0235 171.783 71.0235 172.45C71.0235 173.117 70.9022 173.733 70.6595 174.296C70.4255 174.859 70.0919 175.349 69.6585 175.765C69.2339 176.181 68.7312 176.506 68.1505 176.74C67.5699 176.965 66.9372 177.078 66.2525 177.078ZM66.2525 176.22C66.7985 176.22 67.3012 176.129 67.7605 175.947C68.2285 175.756 68.6315 175.492 68.9695 175.154C69.3162 174.807 69.5849 174.409 69.7755 173.958C69.9662 173.499 70.0615 172.996 70.0615 172.45C70.0615 171.904 69.9662 171.406 69.7755 170.955C69.5849 170.496 69.3162 170.097 68.9695 169.759C68.6315 169.412 68.2285 169.148 67.7605 168.966C67.3012 168.775 66.7985 168.68 66.2525 168.68C65.7065 168.68 65.1995 168.775 64.7315 168.966C64.2635 169.148 63.8562 169.412 63.5095 169.759C63.1715 170.097 62.9029 170.496 62.7035 170.955C62.5129 171.406 62.4175 171.904 62.4175 172.45C62.4175 172.987 62.5129 173.486 62.7035 173.945C62.9029 174.404 63.1715 174.807 63.5095 175.154C63.8562 175.492 64.2635 175.756 64.7315 175.947C65.1995 176.129 65.7065 176.22 66.2525 176.22ZM72.4023 177.078C72.2809 177.078 72.1639 177.069 72.0513 177.052C71.9386 177.043 71.8129 177.022 71.6743 176.987L71.7523 176.129C71.8996 176.164 72.0426 176.181 72.1813 176.181C72.5713 176.181 72.8833 176.029 73.1173 175.726C73.3599 175.414 73.5419 174.937 73.6633 174.296C73.7846 173.646 73.8626 172.814 73.8973 171.8L74.0273 167.9H80.2023V177H79.2533V168.472L79.5003 168.732H74.6383L74.8722 168.459L74.7553 171.774C74.7206 172.684 74.6556 173.473 74.5603 174.14C74.4649 174.799 74.3263 175.349 74.1443 175.791C73.9623 176.224 73.7283 176.549 73.4422 176.766C73.1563 176.974 72.8096 177.078 72.4023 177.078ZM83.1163 176.103C83.5583 176.276 83.9743 176.32 84.3643 176.233C84.7543 176.138 85.1139 175.83 85.4433 175.31L85.8853 174.608L85.9763 174.491L89.4603 167.9H90.4223L86.2883 175.518C86.0109 176.047 85.6816 176.441 85.3003 176.701C84.9276 176.961 84.5289 177.1 84.1043 177.117C83.6883 177.134 83.2679 177.056 82.8433 176.883L83.1163 176.103ZM85.9503 175.362L82.0113 167.9H83.0383L86.4703 174.569L85.9503 175.362ZM97.7632 173.152C97.2432 173.386 96.7232 173.564 96.2032 173.685C95.6919 173.806 95.1979 173.867 94.7212 173.867C93.6552 173.867 92.8232 173.611 92.2252 173.1C91.6359 172.58 91.3412 171.848 91.3412 170.903V167.9H92.2902V170.799C92.2902 171.501 92.5112 172.047 92.9532 172.437C93.4039 172.827 94.0236 173.022 94.8122 173.022C95.2802 173.022 95.7656 172.961 96.2682 172.84C96.7709 172.71 97.2692 172.528 97.7632 172.294V173.152ZM97.5942 177V167.9H98.5302V177H97.5942ZM101.617 177V167.9H102.566V175.44L108.39 167.9H109.261V177H108.312V169.473L102.488 177H101.617ZM114.139 177V168.472L114.399 168.732H110.941V167.9H118.286V168.732H114.841L115.088 168.472V177H114.139ZM120.832 171.969H125.642V172.788H120.832V171.969ZM120.936 176.168H126.409V177H119.974V167.9H126.214V168.732H120.936V176.168ZM131.946 177V167.9H132.895V175.44L138.719 167.9H139.59V177H138.641V169.473L132.817 177H131.946ZM144.724 177L148.884 167.9H149.833L153.993 177H152.979L149.157 168.459H149.547L145.725 177H144.724ZM146.362 174.569L146.648 173.789H151.939L152.225 174.569H146.362ZM161.964 177L158.467 172.463L159.247 171.995L163.069 177H161.964ZM155.737 177V167.9H156.673V177H155.737ZM156.387 172.827V171.982H159.234V172.827H156.387ZM159.325 172.554L158.441 172.398L161.834 167.9H162.874L159.325 172.554ZM166.278 177V168.472L166.539 168.732H163.081V167.9H170.426V168.732H166.981L167.228 168.472V177H166.278ZM172.114 177V167.9H173.063V175.44L178.887 167.9H179.758V177H178.809V169.473L172.985 177H172.114ZM182.829 177V167.9H186.612C187.574 167.9 188.328 168.099 188.874 168.498C189.429 168.888 189.706 169.464 189.706 170.227C189.706 170.981 189.442 171.553 188.913 171.943C188.384 172.324 187.691 172.515 186.833 172.515L187.054 172.19C188.068 172.19 188.839 172.389 189.368 172.788C189.897 173.187 190.161 173.772 190.161 174.543C190.161 175.323 189.884 175.93 189.329 176.363C188.783 176.788 187.96 177 186.859 177H182.829ZM183.778 176.233H186.859C187.63 176.233 188.215 176.09 188.614 175.804C189.013 175.518 189.212 175.076 189.212 174.478C189.212 173.889 189.013 173.455 188.614 173.178C188.215 172.901 187.63 172.762 186.859 172.762H183.778V176.233ZM183.778 172.021H186.56C187.262 172.021 187.799 171.882 188.172 171.605C188.553 171.319 188.744 170.899 188.744 170.344C188.744 169.789 188.553 169.373 188.172 169.096C187.799 168.81 187.262 168.667 186.56 168.667H183.778V172.021ZM192.566 177V167.9H193.515V175.44L199.339 167.9H200.21V177H199.261V169.473L193.437 177H192.566ZM203.281 177V167.9H206.687C207.458 167.9 208.121 168.026 208.676 168.277C209.231 168.52 209.655 168.875 209.95 169.343C210.253 169.802 210.405 170.361 210.405 171.02C210.405 171.661 210.253 172.216 209.95 172.684C209.655 173.143 209.231 173.499 208.676 173.75C208.121 174.001 207.458 174.127 206.687 174.127H203.814L204.243 173.672V177H203.281ZM204.243 173.75L203.814 173.282H206.661C207.571 173.282 208.26 173.087 208.728 172.697C209.205 172.298 209.443 171.739 209.443 171.02C209.443 170.292 209.205 169.729 208.728 169.33C208.26 168.931 207.571 168.732 206.661 168.732H203.814L204.243 168.277V173.75ZM212.012 176.103C212.454 176.276 212.87 176.32 213.26 176.233C213.65 176.138 214.009 175.83 214.339 175.31L214.781 174.608L214.872 174.491L218.356 167.9H219.318L215.184 175.518C214.906 176.047 214.577 176.441 214.196 176.701C213.823 176.961 213.424 177.1 213 177.117C212.584 177.134 212.163 177.056 211.739 176.883L212.012 176.103ZM214.846 175.362L210.907 167.9H211.934L215.366 174.569L214.846 175.362ZM220.813 177V167.9H221.762V175.44L227.586 167.9H228.457V177H227.508V169.473L221.684 177H220.813ZM224.609 167.237C223.959 167.237 223.444 167.09 223.062 166.795C222.69 166.5 222.499 166.089 222.49 165.56H223.205C223.214 165.907 223.344 166.18 223.595 166.379C223.855 166.578 224.193 166.678 224.609 166.678C225.025 166.678 225.359 166.578 225.61 166.379C225.87 166.18 226.005 165.907 226.013 165.56H226.728C226.72 166.089 226.525 166.5 226.143 166.795C225.762 167.09 225.251 167.237 224.609 167.237ZM233.335 177V168.472L233.595 168.732H230.137V167.9H237.482V168.732H234.037L234.284 168.472V177H233.335ZM240.029 171.969H244.839V172.788H240.029V171.969ZM240.133 176.168H245.606V177H239.171V167.9H245.411V168.732H240.133V176.168ZM55.512 193.078C54.8273 193.078 54.1947 192.965 53.614 192.74C53.0333 192.506 52.5307 192.181 52.106 191.765C51.6813 191.349 51.3477 190.859 51.105 190.296C50.871 189.733 50.754 189.117 50.754 188.45C50.754 187.783 50.871 187.167 51.105 186.604C51.3477 186.041 51.6813 185.551 52.106 185.135C52.5393 184.719 53.0463 184.398 53.627 184.173C54.2077 183.939 54.8403 183.822 55.525 183.822C56.1837 183.822 56.8033 183.935 57.384 184.16C57.9647 184.377 58.4543 184.706 58.853 185.148L58.242 185.759C57.8693 185.378 57.4577 185.105 57.007 184.94C56.5563 184.767 56.071 184.68 55.551 184.68C55.005 184.68 54.498 184.775 54.03 184.966C53.562 185.148 53.1547 185.412 52.808 185.759C52.4613 186.097 52.1883 186.496 51.989 186.955C51.7983 187.406 51.703 187.904 51.703 188.45C51.703 188.996 51.7983 189.499 51.989 189.958C52.1883 190.409 52.4613 190.807 52.808 191.154C53.1547 191.492 53.562 191.756 54.03 191.947C54.498 192.129 55.005 192.22 55.551 192.22C56.071 192.22 56.5563 192.133 57.007 191.96C57.4577 191.787 57.8693 191.509 58.242 191.128L58.853 191.739C58.4543 192.181 57.9647 192.515 57.384 192.74C56.8033 192.965 56.1793 193.078 55.512 193.078ZM60.8397 193V183.9H64.6227C65.5847 183.9 66.3387 184.099 66.8847 184.498C67.4393 184.888 67.7167 185.464 67.7167 186.227C67.7167 186.981 67.4523 187.553 66.9237 187.943C66.395 188.324 65.7017 188.515 64.8437 188.515L65.0647 188.19C66.0787 188.19 66.85 188.389 67.3787 188.788C67.9073 189.187 68.1717 189.772 68.1717 190.543C68.1717 191.323 67.8943 191.93 67.3397 192.363C66.7937 192.788 65.9703 193 64.8697 193H60.8397ZM61.7887 192.233H64.8697C65.641 192.233 66.226 192.09 66.6247 191.804C67.0233 191.518 67.2227 191.076 67.2227 190.478C67.2227 189.889 67.0233 189.455 66.6247 189.178C66.226 188.901 65.641 188.762 64.8697 188.762H61.7887V192.233ZM61.7887 188.021H64.5707C65.2727 188.021 65.81 187.882 66.1827 187.605C66.564 187.319 66.7547 186.899 66.7547 186.344C66.7547 185.789 66.564 185.373 66.1827 185.096C65.81 184.81 65.2727 184.667 64.5707 184.667H61.7887V188.021ZM74.568 193.078C73.8833 193.078 73.2463 192.965 72.657 192.74C72.0763 192.506 71.5693 192.181 71.136 191.765C70.7113 191.34 70.3776 190.851 70.135 190.296C69.901 189.733 69.784 189.117 69.784 188.45C69.784 187.783 69.901 187.172 70.135 186.617C70.3776 186.054 70.7113 185.564 71.136 185.148C71.5693 184.723 72.0763 184.398 72.657 184.173C73.2376 183.939 73.8746 183.822 74.568 183.822C75.2526 183.822 75.8853 183.939 76.466 184.173C77.0466 184.398 77.5493 184.719 77.974 185.135C78.4073 185.551 78.741 186.041 78.975 186.604C79.2176 187.167 79.339 187.783 79.339 188.45C79.339 189.117 79.2176 189.733 78.975 190.296C78.741 190.859 78.4073 191.349 77.974 191.765C77.5493 192.181 77.0466 192.506 76.466 192.74C75.8853 192.965 75.2526 193.078 74.568 193.078ZM74.568 192.22C75.114 192.22 75.6166 192.129 76.076 191.947C76.544 191.756 76.947 191.492 77.285 191.154C77.6316 190.807 77.9003 190.409 78.091 189.958C78.2816 189.499 78.377 188.996 78.377 188.45C78.377 187.904 78.2816 187.406 78.091 186.955C77.9003 186.496 77.6316 186.097 77.285 185.759C76.947 185.412 76.544 185.148 76.076 184.966C75.6166 184.775 75.114 184.68 74.568 184.68C74.022 184.68 73.515 184.775 73.047 184.966C72.579 185.148 72.1716 185.412 71.825 185.759C71.487 186.097 71.2183 186.496 71.019 186.955C70.8283 187.406 70.733 187.904 70.733 188.45C70.733 188.987 70.8283 189.486 71.019 189.945C71.2183 190.404 71.487 190.807 71.825 191.154C72.1716 191.492 72.579 191.756 73.047 191.947C73.515 192.129 74.022 192.22 74.568 192.22ZM81.6346 193V183.9H82.5836V191.44L88.4076 183.9H89.2786V193H88.3296V185.473L82.5056 193H81.6346ZM85.4306 183.237C84.7806 183.237 84.2649 183.09 83.8836 182.795C83.5109 182.5 83.3203 182.089 83.3116 181.56H84.0266C84.0353 181.907 84.1653 182.18 84.4166 182.379C84.6766 182.578 85.0146 182.678 85.4306 182.678C85.8466 182.678 86.1803 182.578 86.4316 182.379C86.6916 182.18 86.8259 181.907 86.8346 181.56H87.5496C87.5409 182.089 87.3459 182.5 86.9646 182.795C86.5833 183.09 86.0719 183.237 85.4306 183.237ZM95.7518 193V183.9H102.408V184.719H96.7008V187.696H99.6778C100.752 187.696 101.567 187.917 102.122 188.359C102.685 188.792 102.967 189.434 102.967 190.283C102.967 191.158 102.663 191.83 102.057 192.298C101.459 192.766 100.596 193 99.4698 193H95.7518ZM96.7008 192.233H99.4568C100.297 192.233 100.93 192.073 101.355 191.752C101.788 191.423 102.005 190.946 102.005 190.322C102.005 189.083 101.155 188.463 99.4568 188.463H96.7008V192.233ZM103.845 193L108.005 183.9H108.954L113.114 193H112.1L108.278 184.459H108.668L104.846 193H103.845ZM105.483 190.569L105.769 189.789H111.06L111.346 190.569H105.483ZM114.195 193.078C114.074 193.078 113.957 193.069 113.844 193.052C113.732 193.043 113.606 193.022 113.467 192.987L113.545 192.129C113.693 192.164 113.836 192.181 113.974 192.181C114.364 192.181 114.676 192.029 114.91 191.726C115.153 191.414 115.335 190.937 115.456 190.296C115.578 189.646 115.656 188.814 115.69 187.8L115.82 183.9H121.995V193H121.046V184.472L121.293 184.732H116.431L116.665 184.459L116.548 187.774C116.514 188.684 116.449 189.473 116.353 190.14C116.258 190.799 116.119 191.349 115.937 191.791C115.755 192.224 115.521 192.549 115.235 192.766C114.949 192.974 114.603 193.078 114.195 193.078ZM123.726 193L127.886 183.9H128.835L132.995 193H131.981L128.159 184.459H128.549L124.727 193H123.726ZM125.364 190.569L125.65 189.789H130.941L131.227 190.569H125.364ZM141.395 183.9H142.344V193H141.395V183.9ZM135.701 193H134.739V183.9H135.701V193ZM141.486 188.801H135.597V187.956H141.486V188.801ZM149.394 193.078C148.709 193.078 148.077 192.965 147.496 192.74C146.915 192.506 146.413 192.181 145.988 191.765C145.563 191.349 145.23 190.859 144.987 190.296C144.753 189.733 144.636 189.117 144.636 188.45C144.636 187.783 144.753 187.167 144.987 186.604C145.23 186.041 145.563 185.551 145.988 185.135C146.421 184.719 146.928 184.398 147.509 184.173C148.09 183.939 148.722 183.822 149.407 183.822C150.066 183.822 150.685 183.935 151.266 184.16C151.847 184.377 152.336 184.706 152.735 185.148L152.124 185.759C151.751 185.378 151.34 185.105 150.889 184.94C150.438 184.767 149.953 184.68 149.433 184.68C148.887 184.68 148.38 184.775 147.912 184.966C147.444 185.148 147.037 185.412 146.69 185.759C146.343 186.097 146.07 186.496 145.871 186.955C145.68 187.406 145.585 187.904 145.585 188.45C145.585 188.996 145.68 189.499 145.871 189.958C146.07 190.409 146.343 190.807 146.69 191.154C147.037 191.492 147.444 191.756 147.912 191.947C148.38 192.129 148.887 192.22 149.433 192.22C149.953 192.22 150.438 192.133 150.889 191.96C151.34 191.787 151.751 191.509 152.124 191.128L152.735 191.739C152.336 192.181 151.847 192.515 151.266 192.74C150.685 192.965 150.061 193.078 149.394 193.078ZM154.514 190.27L154.332 183.9H155.424L155.229 190.27H154.514ZM154.878 193.065C154.687 193.065 154.522 193 154.384 192.87C154.254 192.731 154.189 192.571 154.189 192.389C154.189 192.198 154.254 192.042 154.384 191.921C154.522 191.791 154.687 191.726 154.878 191.726C155.077 191.726 155.237 191.791 155.359 191.921C155.489 192.042 155.554 192.198 155.554 192.389C155.554 192.571 155.489 192.731 155.359 192.87C155.237 193 155.077 193.065 154.878 193.065Z" fill="black"/>
<path d="M50.455 87.908L50.806 87.219C51.2047 87.5657 51.651 87.8257 52.145 87.999C52.6477 88.1637 53.1503 88.2503 53.653 88.259C54.1557 88.259 54.615 88.1853 55.031 88.038C55.4557 87.8907 55.798 87.674 56.058 87.388C56.318 87.0933 56.448 86.738 56.448 86.322C56.448 85.7933 56.2357 85.386 55.811 85.1C55.395 84.814 54.8143 84.671 54.069 84.671H52.119V83.891H54.017C54.6583 83.891 55.1567 83.7567 55.512 83.488C55.876 83.2107 56.058 82.8293 56.058 82.344C56.058 81.9973 55.954 81.7027 55.746 81.46C55.5467 81.2087 55.2693 81.018 54.914 80.888C54.5673 80.7493 54.1773 80.6757 53.744 80.667C53.3107 80.6497 52.86 80.706 52.392 80.836C51.9327 80.9573 51.4863 81.1523 51.053 81.421L50.741 80.628C51.2783 80.3073 51.8373 80.0863 52.418 79.965C52.9987 79.835 53.562 79.7917 54.108 79.835C54.654 79.8783 55.1437 80.004 55.577 80.212C56.019 80.42 56.37 80.693 56.63 81.031C56.89 81.369 57.02 81.772 57.02 82.24C57.02 82.6733 56.9073 83.0547 56.682 83.384C56.4653 83.7133 56.1577 83.969 55.759 84.151C55.369 84.3243 54.9053 84.411 54.368 84.411L54.42 84.125C55.0267 84.125 55.551 84.2203 55.993 84.411C56.4437 84.6017 56.7903 84.8747 57.033 85.23C57.2843 85.5767 57.41 85.984 57.41 86.452C57.41 86.894 57.2973 87.2883 57.072 87.635C56.8553 87.973 56.552 88.259 56.162 88.493C55.7807 88.7183 55.3517 88.883 54.875 88.987C54.3983 89.0823 53.9 89.1083 53.38 89.065C52.86 89.0217 52.3487 88.909 51.846 88.727C51.3433 88.5363 50.8797 88.2633 50.455 87.908ZM58.4596 89L62.6196 79.9H63.5686L67.7286 89H66.7146L62.8926 80.459H63.2826L59.4606 89H58.4596ZM60.0976 86.569L60.3836 85.789H65.6746L65.9606 86.569H60.0976ZM69.4725 89V79.9H77.1295V89H76.1805V80.472L76.4275 80.732H70.1745L70.4215 80.472V89H69.4725ZM84.191 89.078C83.5063 89.078 82.8693 88.9653 82.28 88.74C81.6993 88.506 81.1923 88.181 80.759 87.765C80.3343 87.3403 80.0007 86.8507 79.758 86.296C79.524 85.7327 79.407 85.1173 79.407 84.45C79.407 83.7827 79.524 83.1717 79.758 82.617C80.0007 82.0537 80.3343 81.564 80.759 81.148C81.1923 80.7233 81.6993 80.3983 82.28 80.173C82.8607 79.939 83.4977 79.822 84.191 79.822C84.8757 79.822 85.5083 79.939 86.089 80.173C86.6697 80.3983 87.1723 80.719 87.597 81.135C88.0303 81.551 88.364 82.0407 88.598 82.604C88.8407 83.1673 88.962 83.7827 88.962 84.45C88.962 85.1173 88.8407 85.7327 88.598 86.296C88.364 86.8593 88.0303 87.349 87.597 87.765C87.1723 88.181 86.6697 88.506 86.089 88.74C85.5083 88.9653 84.8757 89.078 84.191 89.078ZM84.191 88.22C84.737 88.22 85.2397 88.129 85.699 87.947C86.167 87.7563 86.57 87.492 86.908 87.154C87.2547 86.8073 87.5233 86.4087 87.714 85.958C87.9047 85.4987 88 84.996 88 84.45C88 83.904 87.9047 83.4057 87.714 82.955C87.5233 82.4957 87.2547 82.097 86.908 81.759C86.57 81.4123 86.167 81.148 85.699 80.966C85.2397 80.7753 84.737 80.68 84.191 80.68C83.645 80.68 83.138 80.7753 82.67 80.966C82.202 81.148 81.7947 81.4123 81.448 81.759C81.11 82.097 80.8413 82.4957 80.642 82.955C80.4513 83.4057 80.356 83.904 80.356 84.45C80.356 84.9873 80.4513 85.4857 80.642 85.945C80.8413 86.4043 81.11 86.8073 81.448 87.154C81.7947 87.492 82.202 87.7563 82.67 87.947C83.138 88.129 83.645 88.22 84.191 88.22ZM90.3407 89.078C90.2194 89.078 90.1024 89.0693 89.9897 89.052C89.8771 89.0433 89.7514 89.0217 89.6127 88.987L89.6907 88.129C89.8381 88.1637 89.9811 88.181 90.1197 88.181C90.5097 88.181 90.8217 88.0293 91.0557 87.726C91.2984 87.414 91.4804 86.9373 91.6017 86.296C91.7231 85.646 91.8011 84.814 91.8357 83.8L91.9657 79.9H98.1407V89H97.1917V80.472L97.4387 80.732H92.5767L92.8107 80.459L92.6937 83.774C92.6591 84.684 92.5941 85.4727 92.4987 86.14C92.4034 86.7987 92.2647 87.349 92.0827 87.791C91.9007 88.2243 91.6667 88.5493 91.3807 88.766C91.0947 88.974 90.7481 89.078 90.3407 89.078ZM107.867 79.9H108.816V89H107.867V79.9ZM102.173 89H101.211V79.9H102.173V89ZM107.958 84.801H102.069V83.956H107.958V84.801ZM111.888 89V79.9H112.837V87.44L118.661 79.9H119.532V89H118.583V81.473L112.759 89H111.888ZM124.409 89V80.472L124.669 80.732H121.211V79.9H128.556V80.732H125.111L125.358 80.472V89H124.409ZM131.103 83.969H135.913V84.788H131.103V83.969ZM131.207 88.168H136.68V89H130.245V79.9H136.485V80.732H131.207V88.168ZM146.52 88.376C145.436 88.376 144.509 88.2243 143.738 87.921C142.966 87.609 142.373 87.1583 141.957 86.569C141.541 85.9797 141.333 85.269 141.333 84.437C141.333 83.605 141.541 82.8987 141.957 82.318C142.373 81.7287 142.966 81.278 143.738 80.966C144.509 80.654 145.436 80.498 146.52 80.498C146.528 80.498 146.55 80.498 146.585 80.498C146.619 80.498 146.654 80.498 146.689 80.498C146.723 80.498 146.745 80.498 146.754 80.498C147.846 80.498 148.777 80.654 149.549 80.966C150.32 81.278 150.914 81.7287 151.33 82.318C151.746 82.8987 151.954 83.605 151.954 84.437C151.954 85.269 151.746 85.9797 151.33 86.569C150.922 87.1583 150.333 87.609 149.562 87.921C148.79 88.2243 147.867 88.376 146.793 88.376C146.775 88.376 146.745 88.376 146.702 88.376C146.667 88.376 146.628 88.376 146.585 88.376C146.55 88.376 146.528 88.376 146.52 88.376ZM146.624 87.622C146.641 87.622 146.658 87.622 146.676 87.622C146.693 87.622 146.706 87.622 146.715 87.622C147.625 87.6133 148.4 87.4877 149.042 87.245C149.692 86.9937 150.186 86.634 150.524 86.166C150.862 85.6893 151.031 85.113 151.031 84.437C151.031 83.7523 150.857 83.176 150.511 82.708C150.173 82.24 149.683 81.8847 149.042 81.642C148.409 81.3907 147.642 81.265 146.741 81.265C146.732 81.265 146.715 81.265 146.689 81.265C146.663 81.265 146.641 81.265 146.624 81.265C145.705 81.265 144.921 81.3863 144.271 81.629C143.621 81.8717 143.122 82.2313 142.776 82.708C142.429 83.176 142.256 83.7523 142.256 84.437C142.256 85.1303 142.429 85.7153 142.776 86.192C143.131 86.66 143.634 87.0153 144.284 87.258C144.942 87.5007 145.722 87.622 146.624 87.622ZM146.195 89.312V79.588H147.092V89.312H146.195ZM158.129 89.078C157.444 89.078 156.807 88.9653 156.218 88.74C155.637 88.506 155.13 88.181 154.697 87.765C154.272 87.3403 153.938 86.8507 153.696 86.296C153.462 85.7327 153.345 85.1173 153.345 84.45C153.345 83.7827 153.462 83.1717 153.696 82.617C153.938 82.0537 154.272 81.564 154.697 81.148C155.13 80.7233 155.637 80.3983 156.218 80.173C156.798 79.939 157.435 79.822 158.129 79.822C158.813 79.822 159.446 79.939 160.027 80.173C160.607 80.3983 161.11 80.719 161.535 81.135C161.968 81.551 162.302 82.0407 162.536 82.604C162.778 83.1673 162.9 83.7827 162.9 84.45C162.9 85.1173 162.778 85.7327 162.536 86.296C162.302 86.8593 161.968 87.349 161.535 87.765C161.11 88.181 160.607 88.506 160.027 88.74C159.446 88.9653 158.813 89.078 158.129 89.078ZM158.129 88.22C158.675 88.22 159.177 88.129 159.637 87.947C160.105 87.7563 160.508 87.492 160.846 87.154C161.192 86.8073 161.461 86.4087 161.652 85.958C161.842 85.4987 161.938 84.996 161.938 84.45C161.938 83.904 161.842 83.4057 161.652 82.955C161.461 82.4957 161.192 82.097 160.846 81.759C160.508 81.4123 160.105 81.148 159.637 80.966C159.177 80.7753 158.675 80.68 158.129 80.68C157.583 80.68 157.076 80.7753 156.608 80.966C156.14 81.148 155.732 81.4123 155.386 81.759C155.048 82.097 154.779 82.4957 154.58 82.955C154.389 83.4057 154.294 83.904 154.294 84.45C154.294 84.9873 154.389 85.4857 154.58 85.945C154.779 86.4043 155.048 86.8073 155.386 87.154C155.732 87.492 156.14 87.7563 156.608 87.947C157.076 88.129 157.583 88.22 158.129 88.22ZM165.195 89V79.9H168.601C169.372 79.9 170.035 80.0257 170.59 80.277C171.145 80.5197 171.569 80.875 171.864 81.343C172.167 81.8023 172.319 82.3613 172.319 83.02C172.319 83.6613 172.167 84.216 171.864 84.684C171.569 85.1433 171.145 85.4987 170.59 85.75C170.035 86.0013 169.372 86.127 168.601 86.127H165.728L166.157 85.672V89H165.195ZM166.157 85.75L165.728 85.282H168.575C169.485 85.282 170.174 85.087 170.642 84.697C171.119 84.2983 171.357 83.7393 171.357 83.02C171.357 82.292 171.119 81.7287 170.642 81.33C170.174 80.9313 169.485 80.732 168.575 80.732H165.728L166.157 80.277V85.75ZM174.285 89V79.9H175.078L179.238 86.998H178.822L182.943 79.9H183.736V89H182.813V81.343H183.034L179.238 87.843H178.783L174.961 81.343H175.208V89H174.285ZM186.647 88.103C187.089 88.2763 187.505 88.3197 187.895 88.233C188.285 88.1377 188.644 87.83 188.974 87.31L189.416 86.608L189.507 86.491L192.991 79.9H193.953L189.819 87.518C189.541 88.0467 189.212 88.441 188.831 88.701C188.458 88.961 188.059 89.0997 187.635 89.117C187.219 89.1343 186.798 89.0563 186.374 88.883L186.647 88.103ZM189.481 87.362L185.542 79.9H186.569L190.001 86.569L189.481 87.362ZM199.041 89V79.9H199.99V87.44L205.814 79.9H206.685V89H205.736V81.473L199.912 89H199.041ZM213.158 89V79.9H220.815V89H219.866V80.472L220.113 80.732H213.86L214.107 80.472V89H213.158ZM223.886 89V79.9H227.292C228.063 79.9 228.726 80.0257 229.281 80.277C229.835 80.5197 230.26 80.875 230.555 81.343C230.858 81.8023 231.01 82.3613 231.01 83.02C231.01 83.6613 230.858 84.216 230.555 84.684C230.26 85.1433 229.835 85.4987 229.281 85.75C228.726 86.0013 228.063 86.127 227.292 86.127H224.419L224.848 85.672V89H223.886ZM224.848 85.75L224.419 85.282H227.266C228.176 85.282 228.865 85.087 229.333 84.697C229.809 84.2983 230.048 83.7393 230.048 83.02C230.048 82.292 229.809 81.7287 229.333 81.33C228.865 80.9313 228.176 80.732 227.266 80.732H224.419L224.848 80.277V85.75ZM232.975 89V79.9H233.924V87.44L239.748 79.9H240.619V89H239.67V81.473L233.846 89H232.975ZM242.888 89.078C242.766 89.078 242.649 89.0693 242.537 89.052C242.424 89.0433 242.298 89.0217 242.16 88.987L242.238 88.129C242.385 88.1637 242.528 88.181 242.667 88.181C243.057 88.181 243.369 88.0293 243.603 87.726C243.845 87.414 244.027 86.9373 244.149 86.296C244.27 85.646 244.348 84.814 244.383 83.8L244.513 79.9H250.688V89H249.739V80.472L249.986 80.732H245.124L245.358 80.459L245.241 83.774C245.206 84.684 245.141 85.4727 245.046 86.14C244.95 86.7987 244.812 87.349 244.63 87.791C244.448 88.2243 244.214 88.5493 243.928 88.766C243.642 88.974 243.295 89.078 242.888 89.078ZM257.749 89.078C257.064 89.078 256.427 88.9653 255.838 88.74C255.257 88.506 254.75 88.181 254.317 87.765C253.892 87.3403 253.558 86.8507 253.316 86.296C253.082 85.7327 252.965 85.1173 252.965 84.45C252.965 83.7827 253.082 83.1717 253.316 82.617C253.558 82.0537 253.892 81.564 254.317 81.148C254.75 80.7233 255.257 80.3983 255.838 80.173C256.418 79.939 257.055 79.822 257.749 79.822C258.433 79.822 259.066 79.939 259.647 80.173C260.227 80.3983 260.73 80.719 261.155 81.135C261.588 81.551 261.922 82.0407 262.156 82.604C262.398 83.1673 262.52 83.7827 262.52 84.45C262.52 85.1173 262.398 85.7327 262.156 86.296C261.922 86.8593 261.588 87.349 261.155 87.765C260.73 88.181 260.227 88.506 259.647 88.74C259.066 88.9653 258.433 89.078 257.749 89.078ZM257.749 88.22C258.295 88.22 258.797 88.129 259.257 87.947C259.725 87.7563 260.128 87.492 260.466 87.154C260.812 86.8073 261.081 86.4087 261.272 85.958C261.462 85.4987 261.558 84.996 261.558 84.45C261.558 83.904 261.462 83.4057 261.272 82.955C261.081 82.4957 260.812 82.097 260.466 81.759C260.128 81.4123 259.725 81.148 259.257 80.966C258.797 80.7753 258.295 80.68 257.749 80.68C257.203 80.68 256.696 80.7753 256.228 80.966C255.76 81.148 255.352 81.4123 255.006 81.759C254.668 82.097 254.399 82.4957 254.2 82.955C254.009 83.4057 253.914 83.904 253.914 84.45C253.914 84.9873 254.009 85.4857 254.2 85.945C254.399 86.4043 254.668 86.8073 255.006 87.154C255.352 87.492 255.76 87.7563 256.228 87.947C256.696 88.129 257.203 88.22 257.749 88.22ZM274.664 89L271.635 84.463L272.454 83.995L275.782 89H274.664ZM269.698 84.827V83.982H272.298V84.827H269.698ZM272.493 84.554L271.609 84.398L274.508 79.9H275.548L272.493 84.554ZM264.381 89H263.263L266.591 83.995L267.41 84.463L264.381 89ZM269.997 89H269.061V79.9H269.997V89ZM269.347 84.827H266.747V83.982H269.347V84.827ZM266.552 84.554L263.497 79.9H264.537L267.423 84.398L266.552 84.554ZM277.307 89V79.9H278.256V87.44L284.08 79.9H284.951V89H284.002V81.473L278.178 89H277.307ZM289.829 89V80.472L290.089 80.732H286.631V79.9H293.976V80.732H290.531L290.778 80.472V89H289.829ZM296.523 83.969H301.333V84.788H296.523V83.969ZM296.627 88.168H302.1V89H295.665V79.9H301.905V80.732H296.627V88.168ZM57.579 104.545V96.732H53.224L53.146 98.942C53.12 99.6267 53.0767 100.285 53.016 100.918C52.964 101.542 52.8773 102.105 52.756 102.608C52.6433 103.102 52.4873 103.505 52.288 103.817C52.0973 104.129 51.846 104.311 51.534 104.363L50.481 104.168C50.8277 104.185 51.1137 104.06 51.339 103.791C51.573 103.522 51.7507 103.145 51.872 102.66C52.002 102.175 52.0973 101.607 52.158 100.957C52.2187 100.307 52.262 99.605 52.288 98.851L52.392 95.9H58.528V104.545H57.579ZM50.143 107.041L50.156 104.168H59.893V107.041H58.996V105H51.053L51.04 107.041H50.143ZM65.8463 105.078C65.1616 105.078 64.5246 104.965 63.9353 104.74C63.3546 104.506 62.8476 104.181 62.4143 103.765C61.9896 103.34 61.656 102.851 61.4133 102.296C61.1793 101.733 61.0623 101.117 61.0623 100.45C61.0623 99.7827 61.1793 99.1717 61.4133 98.617C61.656 98.0537 61.9896 97.564 62.4143 97.148C62.8476 96.7233 63.3546 96.3983 63.9353 96.173C64.516 95.939 65.153 95.822 65.8463 95.822C66.531 95.822 67.1636 95.939 67.7443 96.173C68.325 96.3983 68.8276 96.719 69.2523 97.135C69.6856 97.551 70.0193 98.0407 70.2533 98.604C70.496 99.1673 70.6173 99.7827 70.6173 100.45C70.6173 101.117 70.496 101.733 70.2533 102.296C70.0193 102.859 69.6856 103.349 69.2523 103.765C68.8276 104.181 68.325 104.506 67.7443 104.74C67.1636 104.965 66.531 105.078 65.8463 105.078ZM65.8463 104.22C66.3923 104.22 66.895 104.129 67.3543 103.947C67.8223 103.756 68.2253 103.492 68.5633 103.154C68.91 102.807 69.1786 102.409 69.3693 101.958C69.56 101.499 69.6553 100.996 69.6553 100.45C69.6553 99.904 69.56 99.4057 69.3693 98.955C69.1786 98.4957 68.91 98.097 68.5633 97.759C68.2253 97.4123 67.8223 97.148 67.3543 96.966C66.895 96.7753 66.3923 96.68 65.8463 96.68C65.3003 96.68 64.7933 96.7753 64.3253 96.966C63.8573 97.148 63.45 97.4123 63.1033 97.759C62.7653 98.097 62.4966 98.4957 62.2973 98.955C62.1066 99.4057 62.0113 99.904 62.0113 100.45C62.0113 100.987 62.1066 101.486 62.2973 101.945C62.4966 102.404 62.7653 102.807 63.1033 103.154C63.45 103.492 63.8573 103.756 64.3253 103.947C64.7933 104.129 65.3003 104.22 65.8463 104.22ZM79.1399 105L75.6429 100.463L76.4229 99.995L80.2449 105H79.1399ZM72.9129 105V95.9H73.8489V105H72.9129ZM73.5629 100.827V99.982H76.4099V100.827H73.5629ZM76.5009 100.554L75.6169 100.398L79.0099 95.9H80.0499L76.5009 100.554ZM80.2829 105L84.4429 95.9H85.3919L89.5519 105H88.5379L84.7159 96.459H85.1059L81.2839 105H80.2829ZM81.9209 102.569L82.2069 101.789H87.4979L87.7839 102.569H81.9209ZM90.2167 103.908L90.5677 103.219C90.9664 103.566 91.4127 103.826 91.9067 103.999C92.4094 104.164 92.9121 104.25 93.4147 104.259C93.9174 104.259 94.3767 104.185 94.7927 104.038C95.2174 103.891 95.5597 103.674 95.8197 103.388C96.0797 103.093 96.2097 102.738 96.2097 102.322C96.2097 101.793 95.9974 101.386 95.5727 101.1C95.1567 100.814 94.5761 100.671 93.8307 100.671H91.8807V99.891H93.7787C94.4201 99.891 94.9184 99.7567 95.2737 99.488C95.6377 99.2107 95.8197 98.8293 95.8197 98.344C95.8197 97.9973 95.7157 97.7027 95.5077 97.46C95.3084 97.2087 95.0311 97.018 94.6757 96.888C94.3291 96.7493 93.9391 96.6757 93.5057 96.667C93.0724 96.6497 92.6217 96.706 92.1537 96.836C91.6944 96.9573 91.2481 97.1523 90.8147 97.421L90.5027 96.628C91.0401 96.3073 91.5991 96.0863 92.1797 95.965C92.7604 95.835 93.3237 95.7917 93.8697 95.835C94.4157 95.8783 94.9054 96.004 95.3387 96.212C95.7807 96.42 96.1317 96.693 96.3917 97.031C96.6517 97.369 96.7817 97.772 96.7817 98.24C96.7817 98.6733 96.6691 99.0547 96.4437 99.384C96.2271 99.7133 95.9194 99.969 95.5207 100.151C95.1307 100.324 94.6671 100.411 94.1297 100.411L94.1817 100.125C94.7884 100.125 95.3127 100.22 95.7547 100.411C96.2054 100.602 96.5521 100.875 96.7947 101.23C97.0461 101.577 97.1717 101.984 97.1717 102.452C97.1717 102.894 97.0591 103.288 96.8337 103.635C96.6171 103.973 96.3137 104.259 95.9237 104.493C95.5424 104.718 95.1134 104.883 94.6367 104.987C94.1601 105.082 93.6617 105.108 93.1417 105.065C92.6217 105.022 92.1104 104.909 91.6077 104.727C91.1051 104.536 90.6414 104.263 90.2167 103.908ZM98.2214 105L102.381 95.9H103.33L107.49 105H106.476L102.654 96.459H103.044L99.2224 105H98.2214ZM99.8594 102.569L100.145 101.789H105.436L105.722 102.569H99.8594ZM110.584 105V96.472L110.844 96.732H107.386V95.9H114.731V96.732H111.286L111.533 96.472V105H110.584ZM117.278 99.969H122.088V100.788H117.278V99.969ZM117.382 104.168H122.855V105H116.42V95.9H122.66V96.732H117.382V104.168ZM124.326 105.078C124.205 105.078 124.088 105.069 123.975 105.052C123.862 105.043 123.737 105.022 123.598 104.987L123.676 104.129C123.823 104.164 123.966 104.181 124.105 104.181C124.495 104.181 124.807 104.029 125.041 103.726C125.284 103.414 125.466 102.937 125.587 102.296C125.708 101.646 125.786 100.814 125.821 99.8L125.951 95.9H132.126V105H131.177V96.472L131.424 96.732H126.562L126.796 96.459L126.679 99.774C126.644 100.684 126.579 101.473 126.484 102.14C126.389 102.799 126.25 103.349 126.068 103.791C125.886 104.224 125.652 104.549 125.366 104.766C125.08 104.974 124.733 105.078 124.326 105.078ZM139.005 99.15C140.08 99.15 140.899 99.3927 141.462 99.878C142.034 100.355 142.32 101.065 142.32 102.01C142.32 102.989 142.017 103.735 141.41 104.246C140.803 104.749 139.937 105 138.81 105H135.196V95.9H136.145V99.15H139.005ZM138.784 104.233C139.625 104.233 140.262 104.047 140.695 103.674C141.137 103.301 141.358 102.755 141.358 102.036C141.358 101.317 141.141 100.788 140.708 100.45C140.275 100.103 139.633 99.93 138.784 99.93H136.145V104.233H138.784ZM148.404 105.078C147.719 105.078 147.086 104.965 146.506 104.74C145.925 104.506 145.422 104.181 144.998 103.765C144.573 103.349 144.239 102.859 143.997 102.296C143.763 101.733 143.646 101.117 143.646 100.45C143.646 99.7827 143.763 99.1673 143.997 98.604C144.239 98.0407 144.573 97.551 144.998 97.135C145.431 96.719 145.938 96.3983 146.519 96.173C147.099 95.939 147.732 95.822 148.417 95.822C149.075 95.822 149.695 95.9347 150.276 96.16C150.856 96.3767 151.346 96.706 151.745 97.148L151.134 97.759C150.761 97.3777 150.349 97.1047 149.899 96.94C149.448 96.7667 148.963 96.68 148.443 96.68C147.897 96.68 147.39 96.7753 146.922 96.966C146.454 97.148 146.046 97.4123 145.7 97.759C145.353 98.097 145.08 98.4957 144.881 98.955C144.69 99.4057 144.595 99.904 144.595 100.45C144.595 100.996 144.69 101.499 144.881 101.958C145.08 102.409 145.353 102.807 145.7 103.154C146.046 103.492 146.454 103.756 146.922 103.947C147.39 104.129 147.897 104.22 148.443 104.22C148.963 104.22 149.448 104.133 149.899 103.96C150.349 103.787 150.761 103.509 151.134 103.128L151.745 103.739C151.346 104.181 150.856 104.515 150.276 104.74C149.695 104.965 149.071 105.078 148.404 105.078ZM155.424 105V96.472L155.684 96.732H152.226V95.9H159.571V96.732H156.126L156.373 96.472V105H155.424ZM161.26 105V95.9H165.043C166.005 95.9 166.759 96.0993 167.305 96.498C167.859 96.888 168.137 97.4643 168.137 98.227C168.137 98.981 167.872 99.553 167.344 99.943C166.815 100.324 166.122 100.515 165.264 100.515L165.485 100.19C166.499 100.19 167.27 100.389 167.799 100.788C168.327 101.187 168.592 101.772 168.592 102.543C168.592 103.323 168.314 103.93 167.76 104.363C167.214 104.788 166.39 105 165.29 105H161.26ZM162.209 104.233H165.29C166.061 104.233 166.646 104.09 167.045 103.804C167.443 103.518 167.643 103.076 167.643 102.478C167.643 101.889 167.443 101.455 167.045 101.178C166.646 100.901 166.061 100.762 165.29 100.762H162.209V104.233ZM162.209 100.021H164.991C165.693 100.021 166.23 99.8823 166.603 99.605C166.984 99.319 167.175 98.8987 167.175 98.344C167.175 97.7893 166.984 97.3733 166.603 97.096C166.23 96.81 165.693 96.667 164.991 96.667H162.209V100.021ZM169.658 105L173.818 95.9H174.767L178.927 105H177.913L174.091 96.459H174.481L170.659 105H169.658ZM171.296 102.569L171.582 101.789H176.873L177.159 102.569H171.296ZM185.399 107.522C184.922 106.733 184.55 105.823 184.281 104.792C184.021 103.752 183.891 102.634 183.891 101.438C183.891 100.242 184.021 99.124 184.281 98.084C184.55 97.0353 184.922 96.1253 185.399 95.354H186.283C185.772 96.2467 185.395 97.1957 185.152 98.201C184.918 99.1977 184.801 100.277 184.801 101.438C184.801 102.599 184.918 103.683 185.152 104.688C185.395 105.685 185.772 106.629 186.283 107.522H185.399ZM195.007 95.9H195.956V105H195.007V95.9ZM189.313 105H188.351V95.9H189.313V105ZM195.098 100.801H189.209V99.956H195.098V100.801ZM197.689 105L201.849 95.9H202.798L206.958 105H205.944L202.122 96.459H202.512L198.69 105H197.689ZM199.327 102.569L199.613 101.789H204.904L205.19 102.569H199.327ZM208.702 105V95.9H216.359V105H215.41V96.472L215.657 96.732H209.404L209.651 96.472V105H208.702ZM219.43 105V95.9H222.836C223.607 95.9 224.27 96.0257 224.825 96.277C225.379 96.5197 225.804 96.875 226.099 97.343C226.402 97.8023 226.554 98.3613 226.554 99.02C226.554 99.6613 226.402 100.216 226.099 100.684C225.804 101.143 225.379 101.499 224.825 101.75C224.27 102.001 223.607 102.127 222.836 102.127H219.963L220.392 101.672V105H219.43ZM220.392 101.75L219.963 101.282H222.81C223.72 101.282 224.409 101.087 224.877 100.697C225.353 100.298 225.592 99.7393 225.592 99.02C225.592 98.292 225.353 97.7287 224.877 97.33C224.409 96.9313 223.72 96.732 222.81 96.732H219.963L220.392 96.277V101.75ZM228.519 105V95.9H229.468V103.44L235.292 95.9H236.163V105H235.214V97.473L229.39 105H228.519ZM239.234 105V95.9H240.027L244.187 102.998H243.771L247.892 95.9H248.685V105H247.762V97.343H247.983L244.187 103.843H243.732L239.91 97.343H240.157V105H239.234ZM252.61 99.969H257.42V100.788H252.61V99.969ZM252.714 104.168H258.187V105H251.752V95.9H257.992V96.732H252.714V104.168ZM260.321 105V95.9H263.727C264.498 95.9 265.161 96.0257 265.716 96.277C266.271 96.5197 266.695 96.875 266.99 97.343C267.293 97.8023 267.445 98.3613 267.445 99.02C267.445 99.6613 267.293 100.216 266.99 100.684C266.695 101.143 266.271 101.499 265.716 101.75C265.161 102.001 264.498 102.127 263.727 102.127H260.854L261.283 101.672V105H260.321ZM261.283 101.75L260.854 101.282H263.701C264.611 101.282 265.3 101.087 265.768 100.697C266.245 100.298 266.483 99.7393 266.483 99.02C266.483 98.292 266.245 97.7287 265.768 97.33C265.3 96.9313 264.611 96.732 263.701 96.732H260.854L261.283 96.277V101.75ZM272.186 101.88V101.074H275.592V101.88H272.186ZM55.512 121.078C54.8273 121.078 54.1947 120.965 53.614 120.74C53.0333 120.506 52.5307 120.181 52.106 119.765C51.6813 119.349 51.3477 118.859 51.105 118.296C50.871 117.733 50.754 117.117 50.754 116.45C50.754 115.783 50.871 115.167 51.105 114.604C51.3477 114.041 51.6813 113.551 52.106 113.135C52.5393 112.719 53.0463 112.398 53.627 112.173C54.2077 111.939 54.8403 111.822 55.525 111.822C56.1837 111.822 56.8033 111.935 57.384 112.16C57.9647 112.377 58.4543 112.706 58.853 113.148L58.242 113.759C57.8693 113.378 57.4577 113.105 57.007 112.94C56.5563 112.767 56.071 112.68 55.551 112.68C55.005 112.68 54.498 112.775 54.03 112.966C53.562 113.148 53.1547 113.412 52.808 113.759C52.4613 114.097 52.1883 114.496 51.989 114.955C51.7983 115.406 51.703 115.904 51.703 116.45C51.703 116.996 51.7983 117.499 51.989 117.958C52.1883 118.409 52.4613 118.807 52.808 119.154C53.1547 119.492 53.562 119.756 54.03 119.947C54.498 120.129 55.005 120.22 55.551 120.22C56.071 120.22 56.5563 120.133 57.007 119.96C57.4577 119.787 57.8693 119.509 58.242 119.128L58.853 119.739C58.4543 120.181 57.9647 120.515 57.384 120.74C56.8033 120.965 56.1793 121.078 55.512 121.078ZM67.0667 121L63.5697 116.463L64.3497 115.995L68.1717 121H67.0667ZM60.8397 121V111.9H61.7757V121H60.8397ZM61.4897 116.827V115.982H64.3367V116.827H61.4897ZM64.4277 116.554L63.5437 116.398L66.9367 111.9H67.9767L64.4277 116.554ZM69.6502 121V111.9H73.0562C73.8275 111.9 74.4905 112.026 75.0452 112.277C75.5999 112.52 76.0245 112.875 76.3192 113.343C76.6225 113.802 76.7742 114.361 76.7742 115.02C76.7742 115.661 76.6225 116.216 76.3192 116.684C76.0245 117.143 75.5999 117.499 75.0452 117.75C74.4905 118.001 73.8275 118.127 73.0562 118.127H70.1832L70.6122 117.672V121H69.6502ZM70.6122 117.75L70.1832 117.282H73.0302C73.9402 117.282 74.6292 117.087 75.0972 116.697C75.5739 116.298 75.8122 115.739 75.8122 115.02C75.8122 114.292 75.5739 113.729 75.0972 113.33C74.6292 112.931 73.9402 112.732 73.0302 112.732H70.1832L70.6122 112.277V117.75ZM78.7401 121V111.9H79.6891V119.44L85.5131 111.9H86.3841V121H85.4351V113.473L79.6111 121H78.7401ZM96.1109 111.9H97.0599V121H96.1109V111.9ZM90.4169 121H89.4549V111.9H90.4169V121ZM96.2019 116.801H90.3129V115.956H96.2019V116.801ZM105.475 120.168L105.241 120.428V111.9H106.19V120.428L105.93 120.168H110.597L110.337 120.428V111.9H111.286V121H100.132V111.9H101.081V120.428L100.834 120.168H105.475ZM118.341 121.078C117.657 121.078 117.02 120.965 116.43 120.74C115.85 120.506 115.343 120.181 114.909 119.765C114.485 119.34 114.151 118.851 113.908 118.296C113.674 117.733 113.557 117.117 113.557 116.45C113.557 115.783 113.674 115.172 113.908 114.617C114.151 114.054 114.485 113.564 114.909 113.148C115.343 112.723 115.85 112.398 116.43 112.173C117.011 111.939 117.648 111.822 118.341 111.822C119.026 111.822 119.659 111.939 120.239 112.173C120.82 112.398 121.323 112.719 121.747 113.135C122.181 113.551 122.514 114.041 122.748 114.604C122.991 115.167 123.112 115.783 123.112 116.45C123.112 117.117 122.991 117.733 122.748 118.296C122.514 118.859 122.181 119.349 121.747 119.765C121.323 120.181 120.82 120.506 120.239 120.74C119.659 120.965 119.026 121.078 118.341 121.078ZM118.341 120.22C118.887 120.22 119.39 120.129 119.849 119.947C120.317 119.756 120.72 119.492 121.058 119.154C121.405 118.807 121.674 118.409 121.864 117.958C122.055 117.499 122.15 116.996 122.15 116.45C122.15 115.904 122.055 115.406 121.864 114.955C121.674 114.496 121.405 114.097 121.058 113.759C120.72 113.412 120.317 113.148 119.849 112.966C119.39 112.775 118.887 112.68 118.341 112.68C117.795 112.68 117.288 112.775 116.82 112.966C116.352 113.148 115.945 113.412 115.598 113.759C115.26 114.097 114.992 114.496 114.792 114.955C114.602 115.406 114.506 115.904 114.506 116.45C114.506 116.987 114.602 117.486 114.792 117.945C114.992 118.404 115.26 118.807 115.598 119.154C115.945 119.492 116.352 119.756 116.82 119.947C117.288 120.129 117.795 120.22 118.341 120.22ZM127.088 121V112.472L127.348 112.732H123.89V111.9H131.235V112.732H127.79L128.037 112.472V121H127.088ZM142.553 121L139.056 116.463L139.836 115.995L143.658 121H142.553ZM136.326 121V111.9H137.262V121H136.326ZM136.976 116.827V115.982H139.823V116.827H136.976ZM139.914 116.554L139.03 116.398L142.423 111.9H143.463L139.914 116.554ZM143.696 121L147.856 111.9H148.805L152.965 121H151.951L148.129 112.459H148.519L144.697 121H143.696ZM145.334 118.569L145.62 117.789H150.911L151.197 118.569H145.334ZM154.709 121V111.9H161.365V112.719H155.658V115.696H158.635C159.709 115.696 160.524 115.917 161.079 116.359C161.642 116.792 161.924 117.434 161.924 118.283C161.924 119.158 161.62 119.83 161.014 120.298C160.416 120.766 159.553 121 158.427 121H154.709ZM155.658 120.233H158.414C159.254 120.233 159.887 120.073 160.312 119.752C160.745 119.423 160.962 118.946 160.962 118.322C160.962 117.083 160.112 116.463 158.414 116.463H155.658V120.233ZM164.141 121V111.9H165.09V119.44L170.914 111.9H171.785V121H170.836V113.473L165.012 121H164.141ZM181.512 111.9H182.461V121H181.512V111.9ZM175.818 121H174.856V111.9H175.818V121ZM181.603 116.801H175.714V115.956H181.603V116.801ZM186.391 115.969H191.201V116.788H186.391V115.969ZM186.495 120.168H191.968V121H185.533V111.9H191.773V112.732H186.495V120.168ZM195.909 121V112.472L196.169 112.732H192.711V111.9H200.056V112.732H196.611L196.858 112.472V121H195.909ZM199.949 121L204.109 111.9H205.058L209.218 121H208.204L204.382 112.459H204.772L200.95 121H199.949ZM201.587 118.569L201.873 117.789H207.164L207.45 118.569H201.587ZM210.832 123.522H209.948C210.468 122.629 210.845 121.685 211.079 120.688C211.321 119.683 211.443 118.599 211.443 117.438C211.443 116.277 211.321 115.198 211.079 114.201C210.845 113.196 210.468 112.247 209.948 111.354H210.832C211.326 112.125 211.703 113.035 211.963 114.084C212.223 115.124 212.353 116.242 212.353 117.438C212.353 118.634 212.223 119.752 211.963 120.792C211.703 121.823 211.326 122.733 210.832 123.522Z" fill="black"/>
<line x1="20.5" y1="39" x2="20.5" y2="80" stroke="#024247"/>
<line x1="20.5" y1="119" x2="20.5" y2="160" stroke="#024247"/>
<defs>
<linearGradient id="paint0_linear_504_2" x1="14" y1="1" x2="27.5451" y2="1.68701" gradientUnits="userSpaceOnUse">
<stop stop-color="#024247"/>
<stop offset="1" stop-color="#024247"/>
</linearGradient>
<linearGradient id="paint1_linear_504_2" x1="20" y1="0" x2="20" y2="40" gradientUnits="userSpaceOnUse">
<stop stop-color="#024247"/>
<stop offset="1" stop-color="#00272A"/>
</linearGradient>
<linearGradient id="paint2_linear_504_2" x1="11" y1="161" x2="32.3639" y2="162.716" gradientUnits="userSpaceOnUse">
<stop stop-color="#024247"/>
<stop offset="1" stop-color="#024247"/>
</linearGradient>
<linearGradient id="paint3_linear_504_2" x1="20" y1="160" x2="20" y2="200" gradientUnits="userSpaceOnUse">
<stop stop-color="#024247"/>
<stop offset="1" stop-color="#00272A"/>
</linearGradient>
<linearGradient id="paint4_linear_504_2" x1="11" y1="81" x2="32.3639" y2="82.7157" gradientUnits="userSpaceOnUse">
<stop stop-color="#024247"/>
<stop offset="1" stop-color="#024247"/>
</linearGradient>
<linearGradient id="paint5_linear_504_2" x1="20" y1="80" x2="20" y2="120" gradientUnits="userSpaceOnUse">
<stop stop-color="#024247"/>
<stop offset="1" stop-color="#00272A"/>
</linearGradient>
</defs>
</svg>
