<svg width="1140" height="332" viewBox="0 0 1140 332" fill="none" xmlns="http://www.w3.org/2000/svg">
<path fill-rule="evenodd" clip-rule="evenodd" d="M41.3432 49.5671L36.5431 56.9298L42.9778 55.3582L49.4126 53.7866L53.7949 46.4922L58.1772 39.1979L52.1602 40.7011L46.1432 42.2045L41.3432 49.5671ZM67.9282 37.1955C68.1705 37.3712 71.3612 39.3645 75.0187 41.6247L81.6687 45.7346L88.0984 44.1338C91.6347 43.2534 94.4931 42.512 94.4504 42.4864C94.4076 42.4608 90.6973 40.5974 86.2053 38.3457L78.038 34.2518L72.7628 35.5639L67.4876 36.876L67.9282 37.1955ZM60.0236 46.344L56.637 51.9826L65.587 49.7506L74.5368 47.5186L72.7494 46.3983C68.5942 43.7939 63.5276 40.6772 63.4711 40.6908C63.4376 40.6988 61.8862 43.2427 60.0236 46.344ZM36.1881 62.5197C36.2083 62.6008 66.5439 89.5166 66.8247 89.7026C67.0993 89.8846 66.7254 89.2857 56.7083 73.5062L47.8804 59.5997L42.026 61.0264C38.806 61.8113 36.179 62.4832 36.1881 62.5197ZM53.3266 58.3589C53.7641 59.2237 77.2222 96.0218 77.2561 95.8965C77.3344 95.6064 80.3125 51.8305 80.2664 51.6458C80.2282 51.4928 78.4793 51.9048 66.7339 54.8339C55.1474 57.7235 53.2566 58.2206 53.3266 58.3589ZM84.4551 68.0788C83.7775 77.9631 83.2459 86.0641 83.2739 86.0809C83.3291 86.114 97.8381 47.262 97.811 47.1535C97.802 47.1174 95.0705 47.7672 91.7409 48.5975L85.6871 50.1073L84.4551 68.0788Z" fill="#024247" fill-opacity="0.1"/>
<path fill-rule="evenodd" clip-rule="evenodd" d="M1038.81 54.5869L1032.37 57.7941L1037.57 59.3534L1042.76 60.9127L1048.88 57.5806L1055 54.2484L1050.13 52.8141L1045.26 51.3798L1038.81 54.5869ZM1062.71 56.8791C1062.81 57.1036 1064.24 59.8343 1065.88 62.947L1068.87 68.6067L1074.08 70.1433C1076.94 70.9885 1079.26 71.6506 1079.24 71.6148C1079.22 71.579 1077.38 68.7246 1075.14 65.2718L1071.07 58.994L1066.8 57.7324L1062.54 56.4708L1062.71 56.8791ZM1053.34 60.0594L1048.61 62.6356L1055.85 64.7719L1063.1 66.9082L1062.3 65.3759C1060.45 61.8138 1058.16 57.512 1058.12 57.4981C1058.09 57.4898 1055.94 58.6424 1053.34 60.0594ZM1029.8 61.5932C1029.78 61.6589 1040.04 93.2434 1040.16 93.4912C1040.28 93.7335 1040.26 93.1556 1039.73 77.8607L1039.27 64.3812L1034.54 62.9604C1031.94 62.179 1029.81 61.5637 1029.8 61.5932ZM1043.63 65.7642C1043.58 66.5562 1044.88 102.265 1044.95 102.191C1045.13 102.018 1065.39 72.3479 1065.43 72.1983C1065.47 72.0745 1064.06 71.64 1054.55 68.8364C1045.18 66.0707 1043.64 65.6375 1043.63 65.7642ZM1061.57 85.5373C1056.99 92.2345 1053.26 97.7333 1053.27 97.7567C1053.3 97.803 1079.65 76.3915 1079.68 76.3037C1079.69 76.2744 1077.49 75.6002 1074.8 74.8055L1069.9 73.3605L1061.57 85.5373Z" fill="#024247" fill-opacity="0.1"/>
<path fill-rule="evenodd" clip-rule="evenodd" d="M638.193 21.1395L633.836 28.4538L640.003 26.6805L646.169 24.9071L650.124 17.6753L654.08 10.4437L648.315 12.1345L642.55 13.8254L638.193 21.1395ZM663.439 8.12338C663.68 8.28392 666.847 10.088 670.475 12.1322L677.072 15.8492L683.233 14.0478C686.621 13.0571 689.358 12.2275 689.316 12.2043C689.273 12.1812 685.609 10.5232 681.173 8.52004L673.108 4.87789L668.054 6.35464L663 7.83139L663.439 8.12338ZM656.147 17.2877L653.09 22.8778L661.665 20.3667L670.24 17.8556L668.466 16.8414C664.342 14.4836 659.316 11.6657 659.262 11.681C659.23 11.6901 657.828 14.2131 656.147 17.2877ZM633.712 33.8779C633.735 33.9556 664.15 58.8169 664.429 58.9859C664.702 59.1513 664.317 58.5863 654.003 43.7067L644.914 30.5933L639.304 32.2038C636.218 33.0896 633.702 33.8429 633.712 33.8779ZM650.136 29.179C650.594 29.9988 674.74 64.6943 674.768 64.5717C674.833 64.2879 675.999 21.8024 675.947 21.6254C675.904 21.4788 674.227 21.9462 662.974 25.2416C651.874 28.4925 650.063 29.0478 650.136 29.179ZM680.645 37.366C680.377 46.9591 680.18 54.8205 680.208 54.8357C680.263 54.8656 692.782 16.6936 692.751 16.5897C692.741 16.5551 690.123 17.2911 686.933 18.2253L681.133 19.9238L680.645 37.366Z" fill="#024247" fill-opacity="0.1"/>
<path fill-rule="evenodd" clip-rule="evenodd" d="M143.074 195.607L131.716 201.286L140.887 204.021L150.057 206.757L160.845 200.859L171.632 194.961L163.032 192.445L154.432 189.929L143.074 195.607ZM185.252 199.579C185.426 199.975 187.951 204.789 190.862 210.276L196.155 220.253L205.341 222.949C210.393 224.431 214.499 225.593 214.464 225.529C214.429 225.466 211.163 220.435 207.204 214.35L200.007 203.285L192.471 201.072L184.936 198.859L185.252 199.579ZM168.72 205.219L160.383 209.779L173.172 213.526L185.96 217.274L184.549 214.573C181.268 208.293 177.224 200.709 177.144 200.685C177.096 200.671 173.305 202.711 168.72 205.219ZM127.194 207.997C127.16 208.113 145.348 263.812 145.562 264.249C145.772 264.676 145.743 263.656 144.766 236.67L143.905 212.888L135.564 210.395C130.976 209.024 127.21 207.945 127.194 207.997ZM151.602 215.315C151.516 216.712 153.917 279.716 154.051 279.584C154.36 279.28 190.016 226.865 190.094 226.601C190.158 226.383 187.676 225.62 170.892 220.702C154.336 215.851 151.615 215.091 151.602 215.315ZM183.326 250.149C175.268 261.98 168.694 271.694 168.717 271.735C168.762 271.817 215.204 233.956 215.249 233.801C215.264 233.75 211.384 232.567 206.626 231.173L197.976 228.638L183.326 250.149Z" fill="#024247" fill-opacity="0.1"/>
<path fill-rule="evenodd" clip-rule="evenodd" d="M503.591 272.148L497.72 279.86L504.923 278.649L512.127 277.437L517.533 269.767L522.938 262.097L516.2 263.266L509.462 264.436L503.591 272.148ZM533.823 260.678C534.076 260.891 537.425 263.339 541.266 266.119L548.249 271.173L555.449 269.929C559.409 269.245 562.612 268.66 562.567 268.628C562.522 268.596 558.591 266.249 553.832 263.412L545.179 258.253L539.271 259.272L533.364 260.291L533.823 260.678ZM524.395 270.104L520.217 276.034L530.24 274.298L540.262 272.562L538.386 271.187C534.026 267.988 528.704 264.154 528.641 264.164C528.603 264.17 526.692 266.843 524.395 270.104ZM496.881 285.979C496.896 286.07 528.097 318.11 528.391 318.337C528.678 318.559 528.315 317.87 518.566 299.711L509.974 283.707L503.421 284.806C499.817 285.41 496.874 285.938 496.881 285.979ZM516.064 282.78C516.476 283.767 539.318 326.122 539.365 325.987C539.475 325.674 546.268 277.769 546.232 277.562C546.202 277.39 544.246 277.703 531.093 279.981C518.118 282.228 515.998 282.623 516.064 282.78ZM549.518 295.971C547.979 306.788 546.743 315.654 546.773 315.675C546.831 315.716 565.909 274.152 565.888 274.031C565.881 273.991 562.825 274.486 559.096 275.131L552.317 276.305L549.518 295.971Z" fill="#024247" fill-opacity="0.1"/>
<path fill-rule="evenodd" clip-rule="evenodd" d="M451.021 122.519L446.256 127.033L451.158 127.057L456.06 127.082L460.513 122.541L464.966 118L460.376 118.002L455.786 118.004L451.021 122.519ZM472.326 118.314C472.468 118.487 474.403 120.529 476.624 122.852L480.663 127.076L485.567 127.078C488.264 127.079 490.449 127.058 490.423 127.032C490.396 127.005 488.066 124.963 485.244 122.494L480.112 118.005L476.089 118.003L472.067 118L472.326 118.314ZM465.012 123.57L461.57 127.08H468.396H475.223L474.14 125.933C471.622 123.268 468.543 120.06 468.5 120.06C468.474 120.06 466.904 121.639 465.012 123.57ZM445 131.061C445 131.124 461.963 156.372 462.131 156.56C462.296 156.743 462.134 156.236 457.767 142.853L453.919 131.058L449.459 131.034C447.007 131.021 445 131.033 445 131.061ZM458.051 131.144C458.211 131.858 468.465 163.085 468.512 163C468.62 162.802 478.598 131.292 478.598 131.148C478.598 131.029 477.268 131.012 468.31 131.012C459.473 131.012 458.026 131.03 458.051 131.144ZM478.663 143.946C476.406 151.06 474.574 156.894 474.591 156.912C474.625 156.946 492 131.147 492 131.063C492 131.035 489.922 131.012 487.383 131.012H482.766L478.663 143.946Z" fill="#024247"/>
<path d="M210.837 163V158.648L229.077 141.048C230.698 139.512 231.893 138.168 232.661 137.016C233.471 135.821 234.005 134.733 234.261 133.752C234.559 132.728 234.709 131.747 234.709 130.808C234.709 128.504 233.898 126.691 232.277 125.368C230.655 124.045 228.287 123.384 225.173 123.384C222.783 123.384 220.629 123.789 218.709 124.6C216.789 125.368 215.125 126.584 213.717 128.248L209.365 124.472C211.071 122.296 213.354 120.632 216.213 119.48C219.114 118.285 222.293 117.688 225.749 117.688C228.863 117.688 231.573 118.2 233.877 119.224C236.181 120.205 237.951 121.635 239.189 123.512C240.469 125.389 241.109 127.608 241.109 130.168C241.109 131.619 240.917 133.048 240.533 134.456C240.149 135.864 239.423 137.357 238.357 138.936C237.29 140.515 235.754 142.285 233.749 144.248L217.493 159.928L215.957 157.432H243.029V163H210.837ZM267.044 163.512C263.076 163.512 259.684 162.637 256.868 160.888C254.052 159.139 251.898 156.621 250.404 153.336C248.954 150.008 248.228 145.955 248.228 141.176C248.228 136.099 249.124 131.811 250.916 128.312C252.708 124.813 255.204 122.168 258.404 120.376C261.604 118.584 265.274 117.688 269.412 117.688C271.546 117.688 273.572 117.901 275.492 118.328C277.455 118.755 279.14 119.416 280.548 120.312L278.116 125.304C276.964 124.493 275.642 123.939 274.148 123.64C272.698 123.341 271.162 123.192 269.54 123.192C264.975 123.192 261.348 124.621 258.66 127.48C255.972 130.296 254.628 134.499 254.628 140.088C254.628 140.984 254.671 142.051 254.756 143.288C254.842 144.525 255.055 145.741 255.396 146.936L253.22 144.76C253.86 142.797 254.863 141.155 256.228 139.832C257.636 138.467 259.3 137.464 261.22 136.824C263.183 136.141 265.295 135.8 267.556 135.8C270.543 135.8 273.188 136.355 275.492 137.464C277.796 138.573 279.61 140.152 280.932 142.2C282.255 144.205 282.916 146.595 282.916 149.368C282.916 152.227 282.212 154.723 280.804 156.856C279.396 158.989 277.498 160.632 275.108 161.784C272.719 162.936 270.031 163.512 267.044 163.512ZM266.788 158.328C268.751 158.328 270.458 157.965 271.908 157.24C273.402 156.515 274.575 155.512 275.428 154.232C276.282 152.909 276.708 151.373 276.708 149.624C276.708 146.979 275.791 144.888 273.956 143.352C272.122 141.773 269.626 140.984 266.468 140.984C264.42 140.984 262.628 141.368 261.092 142.136C259.556 142.904 258.34 143.949 257.444 145.272C256.591 146.552 256.164 148.024 256.164 149.688C256.164 151.224 256.57 152.653 257.38 153.976C258.191 155.256 259.386 156.301 260.964 157.112C262.543 157.923 264.484 158.328 266.788 158.328ZM306.032 163.512C302.534 163.512 299.398 162.616 296.624 160.824C293.894 159.032 291.718 156.429 290.096 153.016C288.518 149.603 287.728 145.464 287.728 140.6C287.728 135.736 288.518 131.597 290.096 128.184C291.718 124.771 293.894 122.168 296.624 120.376C299.398 118.584 302.534 117.688 306.032 117.688C309.488 117.688 312.603 118.584 315.376 120.376C318.15 122.168 320.326 124.771 321.904 128.184C323.483 131.597 324.272 135.736 324.272 140.6C324.272 145.464 323.483 149.603 321.904 153.016C320.326 156.429 318.15 159.032 315.376 160.824C312.603 162.616 309.488 163.512 306.032 163.512ZM306.032 157.816C308.379 157.816 310.427 157.176 312.176 155.896C313.968 154.616 315.355 152.696 316.336 150.136C317.36 147.576 317.872 144.397 317.872 140.6C317.872 136.803 317.36 133.624 316.336 131.064C315.355 128.504 313.968 126.584 312.176 125.304C310.427 124.024 308.379 123.384 306.032 123.384C303.686 123.384 301.616 124.024 299.824 125.304C298.032 126.584 296.624 128.504 295.6 131.064C294.619 133.624 294.128 136.803 294.128 140.6C294.128 144.397 294.619 147.576 295.6 150.136C296.624 152.696 298.032 154.616 299.824 155.896C301.616 157.176 303.686 157.816 306.032 157.816ZM336.56 163L367.152 118.2H372.08L341.488 163H336.56ZM340.144 142.264C338.096 142.264 336.282 141.752 334.704 140.728C333.125 139.704 331.888 138.275 330.992 136.44C330.138 134.605 329.712 132.472 329.712 130.04C329.712 127.608 330.138 125.475 330.992 123.64C331.888 121.805 333.125 120.376 334.704 119.352C336.282 118.328 338.096 117.816 340.144 117.816C342.234 117.816 344.048 118.328 345.584 119.352C347.162 120.376 348.378 121.805 349.232 123.64C350.085 125.475 350.512 127.608 350.512 130.04C350.512 132.472 350.085 134.605 349.232 136.44C348.378 138.275 347.162 139.704 345.584 140.728C344.048 141.752 342.234 142.264 340.144 142.264ZM340.144 138.616C342.106 138.616 343.642 137.869 344.752 136.376C345.861 134.84 346.416 132.728 346.416 130.04C346.416 127.352 345.861 125.261 344.752 123.768C343.642 122.232 342.106 121.464 340.144 121.464C338.224 121.464 336.688 122.232 335.536 123.768C334.426 125.261 333.872 127.352 333.872 130.04C333.872 132.685 334.426 134.776 335.536 136.312C336.688 137.848 338.224 138.616 340.144 138.616ZM368.496 163.384C366.448 163.384 364.634 162.872 363.056 161.848C361.477 160.824 360.261 159.395 359.408 157.56C358.554 155.725 358.128 153.592 358.128 151.16C358.128 148.728 358.554 146.595 359.408 144.76C360.261 142.925 361.477 141.496 363.056 140.472C364.634 139.448 366.448 138.936 368.496 138.936C370.586 138.936 372.4 139.448 373.936 140.472C375.514 141.496 376.73 142.925 377.584 144.76C378.48 146.595 378.928 148.728 378.928 151.16C378.928 153.592 378.48 155.725 377.584 157.56C376.73 159.395 375.514 160.824 373.936 161.848C372.4 162.872 370.586 163.384 368.496 163.384ZM368.496 159.736C370.416 159.736 371.93 158.989 373.04 157.496C374.192 155.96 374.768 153.848 374.768 151.16C374.768 148.515 374.192 146.424 373.04 144.888C371.93 143.352 370.416 142.584 368.496 142.584C366.576 142.584 365.04 143.352 363.888 144.888C362.778 146.381 362.224 148.472 362.224 151.16C362.224 153.848 362.778 155.96 363.888 157.496C365.04 158.989 366.576 159.736 368.496 159.736ZM405.445 163V118.2H434.821L434.757 123.768H410.181L411.717 122.168L411.781 163H405.445ZM526.455 159.992V123.768H506.807L506.487 133.176C506.359 136.333 506.145 139.363 505.847 142.264C505.591 145.165 505.207 147.789 504.695 150.136C504.183 152.44 503.457 154.339 502.519 155.832C501.623 157.325 500.471 158.243 499.063 158.584L492.151 157.432C493.815 157.56 495.18 157.005 496.247 155.768C497.356 154.488 498.209 152.717 498.807 150.456C499.447 148.152 499.916 145.485 500.215 142.456C500.513 139.384 500.727 136.099 500.855 132.6L501.303 118.2H532.791V159.992H526.455ZM490.551 172.792L490.615 157.432H539.383V172.792H533.431V163H496.567L496.503 172.792H490.551ZM568.292 163.512C564.879 163.512 561.7 162.936 558.756 161.784C555.855 160.632 553.338 159.032 551.204 156.984C549.071 154.893 547.407 152.461 546.212 149.688C545.018 146.915 544.42 143.885 544.42 140.6C544.42 137.315 545.018 134.285 546.212 131.512C547.407 128.739 549.071 126.328 551.204 124.28C553.338 122.189 555.855 120.568 558.756 119.416C561.658 118.264 564.836 117.688 568.292 117.688C571.706 117.688 574.842 118.264 577.7 119.416C580.602 120.525 583.119 122.125 585.252 124.216C587.428 126.264 589.092 128.675 590.244 131.448C591.439 134.221 592.036 137.272 592.036 140.6C592.036 143.928 591.439 146.979 590.244 149.752C589.092 152.525 587.428 154.957 585.252 157.048C583.119 159.096 580.602 160.696 577.7 161.848C574.842 162.957 571.706 163.512 568.292 163.512ZM568.292 157.816C570.767 157.816 573.05 157.389 575.14 156.536C577.274 155.683 579.108 154.488 580.644 152.952C582.223 151.373 583.439 149.539 584.292 147.448C585.188 145.357 585.636 143.075 585.636 140.6C585.636 138.125 585.188 135.843 584.292 133.752C583.439 131.661 582.223 129.848 580.644 128.312C579.108 126.733 577.274 125.517 575.14 124.664C573.05 123.811 570.767 123.384 568.292 123.384C565.775 123.384 563.45 123.811 561.316 124.664C559.226 125.517 557.391 126.733 555.812 128.312C554.234 129.848 552.996 131.661 552.1 133.752C551.247 135.843 550.82 138.125 550.82 140.6C550.82 143.075 551.247 145.357 552.1 147.448C552.996 149.539 554.234 151.373 555.812 152.952C557.391 154.488 559.226 155.683 561.316 156.536C563.45 157.389 565.775 157.816 568.292 157.816ZM602.382 163V118.2H621.646C626.51 118.2 630.329 119.181 633.102 121.144C635.876 123.107 637.262 125.965 637.262 129.72C637.262 133.389 635.94 136.205 633.294 138.168C630.649 140.088 627.172 141.048 622.862 141.048L624.014 139.128C629.006 139.128 632.825 140.131 635.47 142.136C638.158 144.099 639.502 146.979 639.502 150.776C639.502 154.616 638.094 157.624 635.278 159.8C632.505 161.933 628.366 163 622.862 163H602.382ZM608.718 157.944H622.734C626.148 157.944 628.708 157.325 630.414 156.088C632.164 154.808 633.038 152.867 633.038 150.264C633.038 147.661 632.164 145.763 630.414 144.568C628.708 143.373 626.148 142.776 622.734 142.776H608.718V157.944ZM608.718 137.912H621.198C624.313 137.912 626.681 137.293 628.302 136.056C629.966 134.819 630.798 133.005 630.798 130.616C630.798 128.184 629.966 126.349 628.302 125.112C626.681 123.875 624.313 123.256 621.198 123.256H608.718V137.912ZM669.843 133.816C675.133 133.816 679.208 135.011 682.067 137.4C684.925 139.747 686.355 143.267 686.355 147.96C686.355 152.909 684.797 156.664 681.683 159.224C678.611 161.741 674.28 163 668.691 163H650.195V118.2H656.531V133.816H669.843ZM668.435 157.944C672.147 157.944 674.984 157.112 676.947 155.448C678.952 153.784 679.955 151.331 679.955 148.088C679.955 144.931 678.973 142.605 677.011 141.112C675.048 139.619 672.189 138.872 668.435 138.872H656.531V157.944H668.435ZM693.459 163V118.2H699.795V163H693.459ZM708.957 118.2H716.317L728.029 134.584L739.741 118.2H747.229L732.061 139.704L748.445 163H740.893L728.029 145.144L715.229 163H707.869L724.189 139.96L708.957 118.2Z" fill="#024247"/>
<path d="M828.392 131V119.8H838.6V131H836.024V121.32L836.616 121.912H830.376L830.968 121.32V131H828.392ZM846.736 131.192C845.851 131.192 845.03 131.048 844.272 130.76C843.526 130.472 842.875 130.067 842.32 129.544C841.776 129.021 841.35 128.408 841.04 127.704C840.742 127 840.592 126.232 840.592 125.4C840.592 124.568 840.742 123.8 841.04 123.096C841.35 122.392 841.782 121.779 842.336 121.256C842.891 120.733 843.542 120.328 844.288 120.04C845.035 119.752 845.846 119.608 846.72 119.608C847.606 119.608 848.416 119.752 849.152 120.04C849.899 120.328 850.544 120.733 851.088 121.256C851.643 121.779 852.075 122.392 852.384 123.096C852.694 123.789 852.848 124.557 852.848 125.4C852.848 126.232 852.694 127.005 852.384 127.72C852.075 128.424 851.643 129.037 851.088 129.56C850.544 130.072 849.899 130.472 849.152 130.76C848.416 131.048 847.611 131.192 846.736 131.192ZM846.72 128.984C847.222 128.984 847.68 128.899 848.096 128.728C848.523 128.557 848.896 128.312 849.216 127.992C849.536 127.672 849.782 127.293 849.952 126.856C850.134 126.419 850.224 125.933 850.224 125.4C850.224 124.867 850.134 124.381 849.952 123.944C849.782 123.507 849.536 123.128 849.216 122.808C848.907 122.488 848.539 122.243 848.112 122.072C847.686 121.901 847.222 121.816 846.72 121.816C846.219 121.816 845.755 121.901 845.328 122.072C844.912 122.243 844.544 122.488 844.224 122.808C843.904 123.128 843.654 123.507 843.472 123.944C843.302 124.381 843.216 124.867 843.216 125.4C843.216 125.923 843.302 126.408 843.472 126.856C843.654 127.293 843.899 127.672 844.208 127.992C844.528 128.312 844.902 128.557 845.328 128.728C845.755 128.899 846.219 128.984 846.72 128.984ZM854.645 131.176C854.453 131.176 854.25 131.16 854.037 131.128C853.834 131.096 853.61 131.053 853.365 131L853.525 128.808C853.674 128.851 853.829 128.872 853.989 128.872C854.426 128.872 854.767 128.696 855.013 128.344C855.258 127.981 855.434 127.464 855.541 126.792C855.647 126.12 855.717 125.304 855.749 124.344L855.909 119.8H864.517V131H861.957V121.32L862.549 121.912H857.605L858.133 121.288L858.037 124.248C858.005 125.347 857.93 126.323 857.813 127.176C857.695 128.029 857.514 128.755 857.269 129.352C857.023 129.949 856.687 130.403 856.261 130.712C855.834 131.021 855.295 131.176 854.645 131.176ZM867.698 128.888C868.317 129.069 868.834 129.123 869.25 129.048C869.677 128.963 870.055 128.664 870.386 128.152L870.93 127.336L871.17 127.064L874.882 119.8H877.426L872.658 128.664C872.231 129.464 871.725 130.077 871.138 130.504C870.562 130.931 869.927 131.171 869.234 131.224C868.541 131.288 867.821 131.165 867.074 130.856L867.698 128.888ZM871.122 129.224L866.066 119.8H868.834L872.546 127.32L871.122 129.224ZM885.9 126.824C885.345 127.048 884.812 127.219 884.3 127.336C883.788 127.443 883.297 127.496 882.828 127.496C881.324 127.496 880.172 127.139 879.372 126.424C878.572 125.699 878.172 124.659 878.172 123.304V119.8H880.732V123.016C880.732 123.784 880.94 124.365 881.356 124.76C881.772 125.144 882.364 125.336 883.132 125.336C883.623 125.336 884.097 125.283 884.556 125.176C885.015 125.059 885.441 124.893 885.836 124.68L885.9 126.824ZM885.532 131V119.8H888.092V131H885.532ZM889.612 131L894.604 119.8H897.164L902.172 131H899.452L895.356 121.112H896.38L892.268 131H889.612ZM892.108 128.6L892.796 126.632H898.556L899.26 128.6H892.108ZM903.658 131V119.8H906.234V124.2H909.13V126.44H906.234V131H903.658ZM913.546 131.192C912.692 131.192 911.903 131.048 911.178 130.76C910.463 130.472 909.839 130.072 909.306 129.56C908.772 129.037 908.356 128.424 908.058 127.72C907.77 127.005 907.626 126.232 907.626 125.4C907.626 124.557 907.77 123.784 908.058 123.08C908.356 122.376 908.772 121.768 909.306 121.256C909.839 120.733 910.463 120.328 911.178 120.04C911.903 119.752 912.692 119.608 913.546 119.608C914.388 119.608 915.172 119.752 915.898 120.04C916.623 120.328 917.247 120.733 917.77 121.256C918.303 121.768 918.719 122.381 919.018 123.096C919.316 123.8 919.466 124.568 919.466 125.4C919.466 126.232 919.316 127.005 919.018 127.72C918.719 128.424 918.303 129.037 917.77 129.56C917.247 130.072 916.623 130.472 915.898 130.76C915.172 131.048 914.388 131.192 913.546 131.192ZM913.546 128.984C914.015 128.984 914.447 128.899 914.842 128.728C915.236 128.557 915.583 128.317 915.882 128.008C916.18 127.688 916.415 127.309 916.586 126.872C916.756 126.435 916.842 125.944 916.842 125.4C916.842 124.856 916.756 124.365 916.586 123.928C916.415 123.491 916.18 123.117 915.882 122.808C915.583 122.488 915.236 122.243 914.842 122.072C914.447 121.901 914.015 121.816 913.546 121.816C913.087 121.816 912.655 121.901 912.25 122.072C911.855 122.243 911.508 122.488 911.21 122.808C910.911 123.117 910.676 123.491 910.506 123.928C910.335 124.365 910.25 124.856 910.25 125.4C910.25 125.944 910.335 126.435 910.506 126.872C910.676 127.309 910.911 127.688 911.21 128.008C911.508 128.317 911.855 128.557 912.25 128.728C912.655 128.899 913.087 128.984 913.546 128.984ZM923.746 131V121.32L924.338 121.912H920.178V119.8H929.89V121.912H925.73L926.306 121.32V131H923.746Z" fill="#024247"/>
<path d="M836.072 134.8H838.664V146H836.072V134.8ZM830.984 146H828.392V134.8H830.984V146ZM836.264 141.408H830.792V139.216H836.264V141.408ZM840.206 146L845.198 134.8H847.758L852.766 146H850.046L845.95 136.112H846.974L842.862 146H840.206ZM842.702 143.6L843.39 141.632H849.15L849.854 143.6H842.702ZM860.939 143.888L860.363 144.48V134.8H862.939V144.48L862.331 143.888H867.067L866.459 144.48V134.8H869.035V146H854.251V134.8H856.827V144.48L856.235 143.888H860.939ZM871.814 146V134.8H874.39V142.096L879.734 134.8H882.166V146H879.606V138.72L874.262 146H871.814Z" fill="#024247"/>
<path d="M828.392 161V149.8H838.6V161H836.024V151.32L836.616 151.912H830.376L830.968 151.32V161H828.392ZM840.112 161L845.104 149.8H847.664L852.672 161H849.952L845.856 151.112H846.88L842.768 161H840.112ZM842.608 158.6L843.296 156.632H849.056L849.76 158.6H842.608ZM854.158 161V149.8H859.006C860.008 149.8 860.872 149.965 861.598 150.296C862.323 150.616 862.883 151.08 863.278 151.688C863.672 152.296 863.87 153.021 863.87 153.864C863.87 154.696 863.672 155.416 863.278 156.024C862.883 156.632 862.323 157.101 861.598 157.432C860.872 157.752 860.008 157.912 859.006 157.912H855.598L856.75 156.744V161H854.158ZM856.75 157.032L855.598 155.8H858.862C859.662 155.8 860.259 155.629 860.654 155.288C861.048 154.947 861.246 154.472 861.246 153.864C861.246 153.245 861.048 152.765 860.654 152.424C860.259 152.083 859.662 151.912 858.862 151.912H855.598L856.75 150.68V157.032ZM867.699 161V151.32L868.291 151.912H864.131V149.8H873.843V151.912H869.683L870.259 151.32V161H867.699ZM883.15 149.8H885.742V161H883.15V149.8ZM878.062 161H875.47V149.8H878.062V161ZM883.342 156.408H877.87V154.216H883.342V156.408ZM890.932 154.312H896.324V156.328H890.932V154.312ZM891.124 158.92H897.22V161H888.548V149.8H897.012V151.88H891.124V158.92ZM894.404 148.808C894.095 148.808 893.834 148.707 893.62 148.504C893.407 148.301 893.3 148.035 893.3 147.704C893.3 147.373 893.407 147.107 893.62 146.904C893.834 146.701 894.095 146.6 894.404 146.6C894.714 146.6 894.975 146.701 895.188 146.904C895.412 147.107 895.524 147.373 895.524 147.704C895.524 148.035 895.412 148.301 895.188 148.504C894.975 148.707 894.714 148.808 894.404 148.808ZM891.172 148.808C890.863 148.808 890.596 148.707 890.372 148.504C890.159 148.301 890.052 148.035 890.052 147.704C890.052 147.373 890.159 147.107 890.372 146.904C890.596 146.701 890.863 146.6 891.172 146.6C891.482 146.6 891.743 146.701 891.956 146.904C892.17 147.107 892.276 147.373 892.276 147.704C892.276 148.035 892.17 148.301 891.956 148.504C891.743 148.707 891.482 148.808 891.172 148.808ZM899.314 161V149.8H904.162C905.165 149.8 906.029 149.965 906.754 150.296C907.479 150.616 908.039 151.08 908.434 151.688C908.829 152.296 909.026 153.021 909.026 153.864C909.026 154.696 908.829 155.416 908.434 156.024C908.039 156.632 907.479 157.101 906.754 157.432C906.029 157.752 905.165 157.912 904.162 157.912H900.754L901.906 156.744V161H899.314ZM901.906 157.032L900.754 155.8H904.018C904.818 155.8 905.415 155.629 905.81 155.288C906.205 154.947 906.402 154.472 906.402 153.864C906.402 153.245 906.205 152.765 905.81 152.424C905.415 152.083 904.818 151.912 904.018 151.912H900.754L901.906 150.68V157.032ZM916.16 153.48C917.514 153.48 918.56 153.784 919.296 154.392C920.032 154.989 920.4 155.891 920.4 157.096C920.4 158.376 919.989 159.347 919.168 160.008C918.357 160.669 917.232 161 915.792 161H910.736V149.8H913.312V153.48H916.16ZM915.648 159.08C916.309 159.08 916.832 158.915 917.216 158.584C917.6 158.253 917.792 157.773 917.792 157.144C917.792 156.525 917.6 156.083 917.216 155.816C916.842 155.539 916.32 155.4 915.648 155.4H913.312V159.08H915.648ZM921.824 161V149.8H924.4V161H921.824Z" fill="#024247"/>
<line x1="1" y1="10" x2="0.999994" y2="143" stroke="#024247" stroke-width="2"/>
<line x1="1139" y1="269" x2="1139" y2="136" stroke="#024247" stroke-width="2"/>
<line x1="250" y1="11" y2="11" stroke="#024247" stroke-width="2"/>
<line x1="890" y1="268" x2="1140" y2="268" stroke="#024247" stroke-width="2"/>
</svg>
