<svg width="542" height="78" viewBox="0 0 542 78" fill="none" xmlns="http://www.w3.org/2000/svg">
<path fill-rule="evenodd" clip-rule="evenodd" d="M243.021 21.5186L238.256 26.0332L243.158 26.0575L248.06 26.0817L252.513 21.5409L256.966 17L252.376 17.002L247.786 17.004L243.021 21.5186ZM264.326 17.3144C264.468 17.4873 266.403 19.5295 268.624 21.8524L272.663 26.076L277.567 26.078C280.264 26.0791 282.449 26.0582 282.423 26.0316C282.396 26.005 280.066 23.9632 277.244 21.4941L272.112 17.0051L268.089 17.0025L264.067 17L264.326 17.3144ZM257.012 22.5697L253.57 26.08H260.396H267.223L266.14 24.9333C263.622 22.2675 260.543 19.0602 260.5 19.0599C260.474 19.0596 258.904 20.639 257.012 22.5697ZM237 30.0614C237 30.1245 253.963 55.3723 254.131 55.5598C254.296 55.7431 254.134 55.2363 249.767 41.853L245.919 30.0584L241.459 30.034C239.007 30.0207 237 30.033 237 30.0614ZM250.051 30.1444C250.211 30.8575 260.465 62.0854 260.512 61.9998C260.62 61.8018 270.598 30.2919 270.598 30.1482C270.598 30.0293 269.268 30.0116 260.31 30.0116C251.473 30.0116 250.026 30.0303 250.051 30.1444ZM270.663 42.9457C268.406 50.0595 266.574 55.8941 266.591 55.9115C266.625 55.9459 284 30.147 284 30.0627C284 30.0346 281.922 30.0116 279.383 30.0116H274.766L270.663 42.9457Z" fill="#024247"/>
<path d="M2.83675 62V57.648L21.0768 40.048C22.6981 38.512 23.8928 37.168 24.6608 36.016C25.4714 34.8213 26.0048 33.7333 26.2608 32.752C26.5594 31.728 26.7088 30.7467 26.7088 29.808C26.7088 27.504 25.8981 25.6907 24.2768 24.368C22.6554 23.0453 20.2874 22.384 17.1728 22.384C14.7834 22.384 12.6288 22.7893 10.7088 23.6C8.78875 24.368 7.12475 25.584 5.71675 27.248L1.36475 23.472C3.07142 21.296 5.35408 19.632 8.21275 18.48C11.1141 17.2853 14.2928 16.688 17.7488 16.688C20.8634 16.688 23.5728 17.2 25.8768 18.224C28.1808 19.2053 29.9514 20.6347 31.1888 22.512C32.4688 24.3893 33.1088 26.608 33.1088 29.168C33.1088 30.6187 32.9168 32.048 32.5328 33.456C32.1488 34.864 31.4234 36.3573 30.3568 37.936C29.2901 39.5147 27.7541 41.2853 25.7488 43.248L9.49275 58.928L7.95675 56.432H35.0288V62H2.83675ZM59.0443 62.512C55.0763 62.512 51.6843 61.6373 48.8683 59.888C46.0523 58.1387 43.8976 55.6213 42.4043 52.336C40.9536 49.008 40.2283 44.9547 40.2283 40.176C40.2283 35.0987 41.1243 30.8107 42.9163 27.312C44.7083 23.8133 47.2043 21.168 50.4043 19.376C53.6043 17.584 57.2736 16.688 61.4123 16.688C63.5456 16.688 65.5723 16.9013 67.4923 17.328C69.4549 17.7547 71.1403 18.416 72.5483 19.312L70.1163 24.304C68.9643 23.4933 67.6416 22.9387 66.1483 22.64C64.6976 22.3413 63.1616 22.192 61.5403 22.192C56.9749 22.192 53.3483 23.6213 50.6603 26.48C47.9723 29.296 46.6283 33.4987 46.6283 39.088C46.6283 39.984 46.6709 41.0507 46.7563 42.288C46.8416 43.5253 47.0549 44.7413 47.3963 45.936L45.2203 43.76C45.8603 41.7973 46.8629 40.1547 48.2283 38.832C49.6363 37.4667 51.3003 36.464 53.2203 35.824C55.1829 35.1413 57.2949 34.8 59.5563 34.8C62.5429 34.8 65.1883 35.3547 67.4923 36.464C69.7963 37.5733 71.6096 39.152 72.9323 41.2C74.2549 43.2053 74.9163 45.5947 74.9163 48.368C74.9163 51.2267 74.2123 53.7227 72.8043 55.856C71.3963 57.9893 69.4976 59.632 67.1083 60.784C64.7189 61.936 62.0309 62.512 59.0443 62.512ZM58.7883 57.328C60.7509 57.328 62.4576 56.9653 63.9083 56.24C65.4016 55.5147 66.5749 54.512 67.4283 53.232C68.2816 51.9093 68.7083 50.3733 68.7083 48.624C68.7083 45.9787 67.7909 43.888 65.9563 42.352C64.1216 40.7733 61.6256 39.984 58.4683 39.984C56.4203 39.984 54.6283 40.368 53.0923 41.136C51.5563 41.904 50.3403 42.9493 49.4443 44.272C48.5909 45.552 48.1643 47.024 48.1643 48.688C48.1643 50.224 48.5696 51.6533 49.3803 52.976C50.1909 54.256 51.3856 55.3013 52.9643 56.112C54.5429 56.9227 56.4843 57.328 58.7883 57.328ZM98.0323 62.512C94.5336 62.512 91.3976 61.616 88.6243 59.824C85.8936 58.032 83.7176 55.4293 82.0963 52.016C80.5176 48.6027 79.7283 44.464 79.7283 39.6C79.7283 34.736 80.5176 30.5973 82.0963 27.184C83.7176 23.7707 85.8936 21.168 88.6243 19.376C91.3976 17.584 94.5336 16.688 98.0323 16.688C101.488 16.688 104.603 17.584 107.376 19.376C110.15 21.168 112.326 23.7707 113.904 27.184C115.483 30.5973 116.272 34.736 116.272 39.6C116.272 44.464 115.483 48.6027 113.904 52.016C112.326 55.4293 110.15 58.032 107.376 59.824C104.603 61.616 101.488 62.512 98.0323 62.512ZM98.0323 56.816C100.379 56.816 102.427 56.176 104.176 54.896C105.968 53.616 107.355 51.696 108.336 49.136C109.36 46.576 109.872 43.3973 109.872 39.6C109.872 35.8027 109.36 32.624 108.336 30.064C107.355 27.504 105.968 25.584 104.176 24.304C102.427 23.024 100.379 22.384 98.0323 22.384C95.6856 22.384 93.6163 23.024 91.8243 24.304C90.0323 25.584 88.6243 27.504 87.6003 30.064C86.6189 32.624 86.1283 35.8027 86.1283 39.6C86.1283 43.3973 86.6189 46.576 87.6003 49.136C88.6243 51.696 90.0323 53.616 91.8243 54.896C93.6163 56.176 95.6856 56.816 98.0323 56.816ZM128.56 62L159.152 17.2H164.08L133.488 62H128.56ZM132.144 41.264C130.096 41.264 128.282 40.752 126.704 39.728C125.125 38.704 123.888 37.2747 122.992 35.44C122.138 33.6053 121.712 31.472 121.712 29.04C121.712 26.608 122.138 24.4747 122.992 22.64C123.888 20.8053 125.125 19.376 126.704 18.352C128.282 17.328 130.096 16.816 132.144 16.816C134.234 16.816 136.048 17.328 137.584 18.352C139.162 19.376 140.378 20.8053 141.232 22.64C142.085 24.4747 142.512 26.608 142.512 29.04C142.512 31.472 142.085 33.6053 141.232 35.44C140.378 37.2747 139.162 38.704 137.584 39.728C136.048 40.752 134.234 41.264 132.144 41.264ZM132.144 37.616C134.106 37.616 135.642 36.8693 136.752 35.376C137.861 33.84 138.416 31.728 138.416 29.04C138.416 26.352 137.861 24.2613 136.752 22.768C135.642 21.232 134.106 20.464 132.144 20.464C130.224 20.464 128.688 21.232 127.536 22.768C126.426 24.2613 125.872 26.352 125.872 29.04C125.872 31.6853 126.426 33.776 127.536 35.312C128.688 36.848 130.224 37.616 132.144 37.616ZM160.496 62.384C158.448 62.384 156.634 61.872 155.056 60.848C153.477 59.824 152.261 58.3947 151.408 56.56C150.554 54.7253 150.128 52.592 150.128 50.16C150.128 47.728 150.554 45.5947 151.408 43.76C152.261 41.9253 153.477 40.496 155.056 39.472C156.634 38.448 158.448 37.936 160.496 37.936C162.586 37.936 164.4 38.448 165.936 39.472C167.514 40.496 168.73 41.9253 169.584 43.76C170.48 45.5947 170.928 47.728 170.928 50.16C170.928 52.592 170.48 54.7253 169.584 56.56C168.73 58.3947 167.514 59.824 165.936 60.848C164.4 61.872 162.586 62.384 160.496 62.384ZM160.496 58.736C162.416 58.736 163.93 57.9893 165.04 56.496C166.192 54.96 166.768 52.848 166.768 50.16C166.768 47.5147 166.192 45.424 165.04 43.888C163.93 42.352 162.416 41.584 160.496 41.584C158.576 41.584 157.04 42.352 155.888 43.888C154.778 45.3813 154.224 47.472 154.224 50.16C154.224 52.848 154.778 54.96 155.888 56.496C157.04 57.9893 158.576 58.736 160.496 58.736ZM197.445 62V17.2H226.821L226.757 22.768H202.181L203.717 21.168L203.781 62H197.445ZM318.455 58.992V22.768H298.807L298.487 32.176C298.359 35.3333 298.145 38.3627 297.847 41.264C297.591 44.1653 297.207 46.7893 296.695 49.136C296.183 51.44 295.457 53.3387 294.519 54.832C293.623 56.3253 292.471 57.2427 291.063 57.584L284.151 56.432C285.815 56.56 287.18 56.0053 288.247 54.768C289.356 53.488 290.209 51.7173 290.807 49.456C291.447 47.152 291.916 44.4853 292.215 41.456C292.513 38.384 292.727 35.0987 292.855 31.6L293.303 17.2H324.791V58.992H318.455ZM282.551 71.792L282.615 56.432H331.383V71.792H325.431V62H288.567L288.503 71.792H282.551ZM360.292 62.512C356.879 62.512 353.7 61.936 350.756 60.784C347.855 59.632 345.338 58.032 343.204 55.984C341.071 53.8933 339.407 51.4613 338.212 48.688C337.018 45.9147 336.42 42.8853 336.42 39.6C336.42 36.3147 337.018 33.2853 338.212 30.512C339.407 27.7387 341.071 25.328 343.204 23.28C345.338 21.1893 347.855 19.568 350.756 18.416C353.658 17.264 356.836 16.688 360.292 16.688C363.706 16.688 366.842 17.264 369.7 18.416C372.602 19.5253 375.119 21.1253 377.252 23.216C379.428 25.264 381.092 27.6747 382.244 30.448C383.439 33.2213 384.036 36.272 384.036 39.6C384.036 42.928 383.439 45.9787 382.244 48.752C381.092 51.5253 379.428 53.9573 377.252 56.048C375.119 58.096 372.602 59.696 369.7 60.848C366.842 61.9573 363.706 62.512 360.292 62.512ZM360.292 56.816C362.767 56.816 365.05 56.3893 367.14 55.536C369.274 54.6827 371.108 53.488 372.644 51.952C374.223 50.3733 375.439 48.5387 376.292 46.448C377.188 44.3573 377.636 42.0747 377.636 39.6C377.636 37.1253 377.188 34.8427 376.292 32.752C375.439 30.6613 374.223 28.848 372.644 27.312C371.108 25.7333 369.274 24.5173 367.14 23.664C365.05 22.8107 362.767 22.384 360.292 22.384C357.775 22.384 355.45 22.8107 353.316 23.664C351.226 24.5173 349.391 25.7333 347.812 27.312C346.234 28.848 344.996 30.6613 344.1 32.752C343.247 34.8427 342.82 37.1253 342.82 39.6C342.82 42.0747 343.247 44.3573 344.1 46.448C344.996 48.5387 346.234 50.3733 347.812 51.952C349.391 53.488 351.226 54.6827 353.316 55.536C355.45 56.3893 357.775 56.816 360.292 56.816ZM394.382 62V17.2H413.646C418.51 17.2 422.329 18.1813 425.102 20.144C427.876 22.1067 429.262 24.9653 429.262 28.72C429.262 32.3893 427.94 35.2053 425.294 37.168C422.649 39.088 419.172 40.048 414.862 40.048L416.014 38.128C421.006 38.128 424.825 39.1307 427.47 41.136C430.158 43.0987 431.502 45.9787 431.502 49.776C431.502 53.616 430.094 56.624 427.278 58.8C424.505 60.9333 420.366 62 414.862 62H394.382ZM400.718 56.944H414.734C418.148 56.944 420.708 56.3253 422.414 55.088C424.164 53.808 425.038 51.8667 425.038 49.264C425.038 46.6613 424.164 44.7627 422.414 43.568C420.708 42.3733 418.148 41.776 414.734 41.776H400.718V56.944ZM400.718 36.912H413.198C416.313 36.912 418.681 36.2933 420.302 35.056C421.966 33.8187 422.798 32.0053 422.798 29.616C422.798 27.184 421.966 25.3493 420.302 24.112C418.681 22.8747 416.313 22.256 413.198 22.256H400.718V36.912ZM461.843 32.816C467.133 32.816 471.208 34.0107 474.067 36.4C476.925 38.7467 478.355 42.2667 478.355 46.96C478.355 51.9093 476.797 55.664 473.683 58.224C470.611 60.7413 466.28 62 460.691 62H442.195V17.2H448.531V32.816H461.843ZM460.435 56.944C464.147 56.944 466.984 56.112 468.947 54.448C470.952 52.784 471.955 50.3307 471.955 47.088C471.955 43.9307 470.973 41.6053 469.011 40.112C467.048 38.6187 464.189 37.872 460.435 37.872H448.531V56.944H460.435ZM485.459 62V17.2H491.795V62H485.459ZM500.957 17.2H508.317L520.029 33.584L531.741 17.2H539.229L524.061 38.704L540.445 62H532.893L520.029 44.144L507.229 62H499.869L516.189 38.96L500.957 17.2Z" fill="#024247"/>
</svg>
